<?xml version="1.0" encoding="utf-8"?>
<!-- Generator: Adobe Illustrator 15.1.0, SVG Export Plug-In . SVG Version: 6.00 Build 0)  -->
<!DOCTYPE svg PUBLIC "-//W3C//DTD SVG 1.1//EN" "http://www.w3.org/Graphics/SVG/1.1/DTD/svg11.dtd">
<svg version="1.1" id="Layer_1" xmlns="http://www.w3.org/2000/svg" xmlns:xlink="http://www.w3.org/1999/xlink" x="0px" y="0px"
	 width="130px" height="50px" viewBox="0 0 130 50" enable-background="new 0 0 130 50" xml:space="preserve">
<path fill="#0080FF" d="M82.178,49.378l4.718-0.145c0.867,0,1.997,0.103,2.721-0.169c4.134,0,8.528,0.157,12.526-0.094
	c0.854-0.052,1.973,0.067,2.715-0.24c0.722,0,1.582,0.078,2.177-0.167l1.452-0.167l3.266-0.068c1.401,0.048,3.515,0.34,4.718-0.267
	l3.992-0.15c0.788,0.014,2.204,0.308,2.902-0.016c1.104,0.039,2.355-0.282,3.343-0.967c1.006-0.672,1.812-1.688,2.289-2.813
	c0.142,0.122,0.441-0.991,0.604-1.41c-0.105-0.108-0.577,0.681-0.81,0.907l-0.111-0.096c0.257-0.666,0.438-1.364,0.532-2.065
	c0.223-0.792,0.074-1.761,0.114-2.399c-0.19,0.154-0.193,0.41-0.222,0.781c-0.101,1.594-0.635,3.205-1.57,4.428
	c-0.922,1.229-2.25,2.026-3.619,2.104c-3.726-0.022-7.661-0.122-11.431,0.046l-3.815,0.444c-2.086,0.188-4.151,0.135-6.346,0.23
	L97.788,47.2c-6.175-0.355-12.401,0.438-18.688,0.344l-3.815-0.297l-6.346-0.062c-3.42-0.247-6.854-0.675-10.347-0.779l-4.35,0.016
	L48.98,46.86l-7.988-0.454c-1.015-0.01-1.798,0.203-2.728,0.178c-4.473-0.12-8.771-0.084-13.233,0.172
	c-3.896,0.225-7.973,0.727-11.975,0.606c-1.89-0.059-3.728-0.263-5.589-0.542c-1.98-0.38-3.567-1.987-4.386-3.945
	c-0.424-0.966-0.648-2.039-0.675-3.102C2.391,39.258,2.444,38.7,2.47,38.12l0.096-1.707l0.385-6.83l0.224-6.162
	c0.212-3.84-0.391-7.707-0.267-11.615l0.088-2.883c0.036-0.726,0.179-1.356,0.419-1.965C3.89,5.756,4.769,4.816,5.771,4.439
	c0.224-0.083,0.453-0.138,0.683-0.168C6.57,4.259,6.687,4.25,6.802,4.25l0.415,0.012l2.893,0.088l4.263,0.174l8.523,0.351
	c7.562,0,15.308-0.34,22.877-0.8l9.079-0.135C59.84,3.802,64.87,4.361,69.719,4.434l8.521-0.014
	c6.345-0.1,13.023-0.492,19.413-0.398c7.911,0.111,16.148,0.225,24.133,0.115c0.493-0.007,0.992-0.034,1.494-0.069l0.188-0.014
	l0.048-0.003l0.021-0.001l0.012-0.001h0.003c-0.021,0,0.05,0-0.045-0.001h0.002h0.006l0.094-0.004L123.9,4.03
	c0.136-0.01,0.335,0.006,0.5,0.026c0.689,0.091,1.384,0.427,1.92,0.995c0.588,0.656,1.023,1.52,1.239,2.459
	c0.109,0.469,0.161,0.957,0.164,1.452l-0.003,2.043c0.147,7.465,0.347,15.038,0.418,22.576l0.322,5.471h0.135
	c0-4.273,0.458-8.235,0.639-12.315l0.347-13.909l0.064-3.768c0.029-1.311-0.217-2.657-0.727-3.833
	c-0.997-2.377-3.073-4.01-5.247-4.066c-4.072-0.079-8.101-0.159-12.047-0.331l-7.082-0.14L99.11,0.642
	c-3.6-0.053-7.201-0.053-10.887,0.005c-1.092,0.016-3.323-0.23-4.172,0.168L71.896,0.956c-5.371-0.156-11.233-0.392-16.517-0.225
	c-1.696,0.047-5.37-0.486-6.708,0.084l-2.359,0.167c-1.11,0-3.459-0.203-4.354,0.168c-0.907,0-2.149-0.147-2.903,0.167l-1.27,0.167
	c-2.541,0-4.99,0.089-7.445,0.163c-0.987,0.025-2.386-0.152-3.26,0.172c-3.864,0-7.728-0.139-11.573-0.293L9.75,1.302L7.556,1.254
	C7.09,1.238,6.575,1.214,6.072,1.305C5.066,1.476,4.094,1.97,3.277,2.73C2.036,3.875,1.188,5.575,0.872,7.407
	C0.793,7.852,0.746,8.354,0.731,8.796l-0.027,1.312L0.63,12.7c-0.266,7.272,0.072,14.669-0.066,22.112l-0.065,2.405l-0.046,1.197
	l-0.025,0.599c-0.005,0.229-0.014,0.495-0.004,0.743c0.04,2.021,0.623,4.056,1.66,5.684c1.029,1.631,2.519,2.869,4.207,3.382
	c0.21,0.065,0.422,0.117,0.638,0.16c0.212,0.042,0.534,0.081,0.649,0.094l1.01,0.081l1.922,0.128
	c0.993,0.063,3.532,0.287,4.354-0.051c1.021,0,3.981-0.022,4.718-0.336c0.641,0,1.458,0.058,1.997-0.167
	c2.182,0,4.309-0.099,6.361-0.256l1.984-0.245c5.069,0,9.741,0.476,14.696,0.685c1.18,0.051,3.727,0.406,4.718-0.017l7.619-0.276
	c4.299,0.256,8.653,0.736,13.071,0.924l9.428,0.021C80.296,49.342,81.259,49.42,82.178,49.378z M128.676,43.815l0.107,0.099
	L128.676,43.815z"/>
</svg>
