<?xml version="1.0" encoding="utf-8"?>
<!-- Generator: Adobe Illustrator 15.1.0, SVG Export Plug-In . SVG Version: 6.00 Build 0)  -->
<!DOCTYPE svg PUBLIC "-//W3C//DTD SVG 1.1//EN" "http://www.w3.org/Graphics/SVG/1.1/DTD/svg11.dtd">
<svg version="1.1" id="Layer_1" xmlns="http://www.w3.org/2000/svg" xmlns:xlink="http://www.w3.org/1999/xlink" x="0px" y="0px"
	 width="300px" height="50px" viewBox="0 0 300 50" enable-background="new 0 0 300 50" xml:space="preserve">
<g>
	<g>
		<path fill="#4367B1" d="M264.281,4.928l0.143,0.024c0.109-0.175,0.278-0.328,0.451-0.49c-0.225,0.061-0.425,0.148-0.573,0.139
			L264.281,4.928z M290.102,5.354c-0.017,0.019-0.055,0.046-0.13,0.035c0.038,0.004,0.076-0.013,0.111,0
			C290.093,5.367,290.097,5.361,290.102,5.354z M265.347,3.915c0.037-0.061,0.068-0.128,0.097-0.197
			C265.374,3.742,265.374,3.799,265.347,3.915z M265.723,3.712c-0.008-0.001-0.012-0.001-0.019-0.001
			c0.006,0.015,0.011,0.03,0.016,0.045L265.723,3.712z M264.345,3.896l0.143,0.023l0.017-0.259l-0.284-0.046l-0.018,0.258
			l-0.145-0.023c-0.037,0.581,0.066,0.739,0.244,0.751l0.028-0.444L264.345,3.896z M299.753,36.266
			c-0.247-0.158-1.057,1.019-1.458,1.376l-0.254-0.141c0.343-1.015,0.55-2.051,0.642-3.073c0.205-0.703,0.142-1.483,0.081-2.201
			c0.041-0.416,0.063-0.836,0.063-1.262V19.757c0-1.277-0.195-2.51-0.551-3.672c-0.117-0.445-0.26-0.885-0.427-1.317
			c-0.01-0.068-0.012-0.137-0.023-0.205l1.019-1.351c-0.293-1.473-0.494-2.907-0.772-4.377c-0.309-1.647-0.619,4.113-1.009,2.52
			c-0.204-0.865,0.318-2.864,0.318-3.747c0-1.454-0.417-2.326-1.405-2.357c-0.736-0.024-4.271-0.084-5.862,0.139
			c-0.025,0.393-0.976-0.617-1.945-0.271c-0.081-0.311-0.161-0.687-0.239-1.106l0.17,1.135c-0.093,0.035-0.18,0.066-0.296,0.122
			l-0.347,0.173c-0.271-0.043,0.233-0.903-0.009-0.688c-0.03,0.542-0.173-0.11-0.271-0.305c0.021-0.34,0.066-0.25-0.126-0.28
			c-0.003,0.044-0.054,0.118-0.121,0.203c-0.084-0.417-1.15,0.306-1.16,0.458l-0.145-0.023l-0.07-0.033l0.006-0.075
			c-0.061-0.01-0.141-0.012-0.209-0.018l-0.412-0.192l0.07,0.161c-0.684-0.031-1.539,0.025-2.074,0.155l-0.031,0.516
			c0.404,0.064,1.847-0.172,2.257,0.013l-0.369,0.265c-0.155-0.07-0.302-0.169-0.429-0.293c-0.063,1.01-2.015,0.675-2.515,0.645
			l0.018-0.259c0.567,0.091,0.152,0.206,0.657-0.07l0.015-0.26l-0.203-0.555c-0.676,0.128-1.382,0.219-2.021,0.501
			c-0.763,0.344-1.262-0.793-2.127-0.553c-0.544-0.087-1.002-0.034-1.614-0.098c0.015-0.244,0.096-0.425,0.182-0.604
			c0.128-0.074,0.23-0.129,0.307-0.167l0.006,0.042c-0.024,0.402,0.089,0.405,0.257,0.563l0.093-1.55l-0.287-0.047l-0.014,0.259
			l-0.146-0.023l0.055,0.453c-0.655-0.055-1.162,0.229-1.763,0.271c-0.034,0.003-0.063,0.005-0.095,0.008l0.013-0.211
			c-0.186-0.03-0.327,0.097-0.46,0.251c-1.459,0.129-2.785,0.293-4.165,0.72l-0.016,0.257l0.879-0.121
			c0.224,0.036,0.438,0.052,0.649,0.056c-0.594,0.009-1.184,0.067-1.77,0.087l0.04-0.641c0.127-0.132,0.239-0.335,0.328-0.545
			c-0.091-0.015-0.382,0.086-0.747,0.238l0.007-0.116l-1.471,0.288l-0.016,0.257l-0.145-0.023l-0.015,0.26l0.158,0.024
			c-0.521,0.268-0.956,0.518-1.067,0.636c-0.025,0.41-0.123,0.237-0.297,0.188c-0.53-0.137-0.652-0.433-0.769-1.258l-0.089-0.015
			c-0.024,0.412-0.125,0.371-0.318,0.47c0.019-0.297-0.072-0.617-0.178-0.907l-0.013,0.213l-0.449,0.191
			c0.051-0.101,0.074-0.181,0.089-0.245c-0.128,0.212-0.301,0.386-0.472,0.546c0.118-0.033,0.241-0.058,0.367-0.046l-0.016,0.26
			l0.144,0.023c-0.027,0.444-0.68,0.275-0.897,0.378c-0.515-0.083-0.98,0.008-1.421-0.486c-0.024,0.379-0.621,0.008-0.87-0.016
			l-3.471,0.367l-1.98,0.113c-0.945,0.184-0.263-0.471-1.131,0.222c0.023-0.421-1.596,0.746-1.799,0.714l0.033-0.517l0.737-0.145
			l0.031-0.516l-1.164,0.02c-0.885,0.333-2.219-0.325-3.162-0.272l0.017-0.259l0.288,0.046c0.026-0.412,0.295-0.377,0.466-0.446
			c-0.028,0.45,0.272,0.131,0.429,0.067l-0.015,0.258c0.226,0.036,0.302-0.205,0.464-0.449l0.016-0.259l-0.146-0.021
			c0.028-0.419-0.06-0.247-0.258-0.27c-0.702-0.078-2.887-0.225-3.244,0.494c-0.013,0.219-0.944-0.304-1.281-0.34
			c-0.507-0.048-1.404,0.454-1.727-0.396l-0.144-0.022l-0.207,1.009l-0.018,0.258c-0.71-0.114-1.267-0.519-1.998-0.178l-1.25,0.969
			l0.063-1.035l-0.576-0.092c-0.022,0.378,0.126,0.55,0.24,0.819c-0.457-0.073-0.64-0.298-0.975-0.675l-0.017,0.257
			c-0.296-0.048,0.006,0.344,0.112,0.541c-0.392-0.064-0.657-0.17-0.992-0.419c0.031-0.5,0.404-0.572,0.622-0.683
			c-0.019,0.345-0.062,0.249,0.129,0.279c0.027-0.435,0.392-0.376,0.608-0.424l0.049-0.776c-0.456-0.071-1.162,0.54-1.521,1.063
			l-0.145-0.022c-0.011,0.178-0.441-0.12-0.72-0.115c0.066-1.074-0.966,0.27-1.088,1.132l-0.144-0.023
			c0.023-0.402-0.116-0.792-0.224-1.08l0.015-0.257c-0.302-0.049-0.683,0.395-0.913,0.637l-0.143-0.023l-0.016,0.26l0.144,0.021
			l-0.015,0.259l0.432,0.07l0.017-0.258c0.192,0.03,0.138,0.11,0.161-0.236l0.141,0.022c-0.026,0.442-0.133,0.859-0.351,0.987
			l-0.015,0.247l-0.132-0.003c-0.001-0.072-0.003-0.157,0.005-0.265l-0.146-0.024l0.015-0.257c-0.25-0.042-0.541,0.229-0.751,0.401
			l-0.145-0.022c0.034-0.55,0.215-1.133,0.255-1.788c-0.187-0.028-0.137-0.101-0.158,0.239l-1.009-0.162l-0.033,0.519l0.146,0.021
			l-0.015,0.258l0.879-0.119c-0.021,0.346,0.033,0.264-0.159,0.235l-0.049,0.772c-0.433-0.067-0.813-0.902-1.072-1.473
			c0.027-0.462-0.536-0.233-0.74-0.167c-1.067,0.36-2.165,0.39-3.218,0.582l-2.235,0.624c-0.652-0.063-1.702,0.021-2.207,0.757
			l0.447-0.191c-0.037,0.615-1.17,0.547-1.486,0.547l0.03-0.517l0.433,0.068c0.013-0.213,0.003-0.256,0.038-0.257
			c-0.321-0.057-1.24-0.196-1.623,0.005l-0.141-0.022L223.493,5l-0.145-0.02c-0.04,0.636,0.823,0.635,1.122,0.698l-0.018,0.258
			l-2.479,0.129c0.037-0.59,0.507-1.003,0.67-1.458l0.145,0.021l0.017-0.257l-1.424-0.334l-2.21,0.278l-0.015,0.259l-0.146-0.023
			l-0.013,0.256l1.166-0.074c0.31,0.049-0.347,0.5-0.608,0.425l-0.017,0.258c-0.252-0.042-0.245,0.377-0.333,0.729l0.591-0.167
			c-0.02,0.303-0.674,0.46-0.968,0.577l-0.085-0.009l0.015-0.211c-0.259-0.04-0.106-0.686-0.081-1.057l-1.042,0.357
			c-0.025,0.405,0.135,0.569,0.241,0.822l-0.145-0.025c-0.002,0.038-0.011,0.054-0.017,0.076l-0.094,0.028
			c-0.126-0.117-0.332-0.577-0.435-0.71c0.028-0.493-0.517-0.075-0.512-1.125c-0.427-0.067-0.765,0.555-1.2,0.593
			c-0.644-0.104-1.161,0.044-1.759,0.24c-0.06,0.97-0.678,1.297-1.105,1.391l0.225-1.269l-0.145-0.02l0.015-0.26
			c-0.206-0.034-0.312,0.26-0.463,0.448l0.016-0.26l-0.287-0.044c0.015-0.265,0.074-0.322,0.177-0.494
			c0.341,0.053,0.585-0.209,0.768-0.662L211.7,5.214l0.016-0.259c-0.611-0.096-1.635,0.912-1.729,2.071l-0.286-0.044l-0.017,0.258
			l-0.145-0.023l-0.031-1.83l0.143,0.021l0.016-0.258l-1.184,0.177c-1.676,0.094-3.325,0.142-4.945,0.152l-0.015,0.26l0.145,0.021
			l-0.015,0.259l0.158-0.234l0.144,0.022c-0.021,0.346-0.03,0.304-0.19,0.384c-0.424,0.226-0.828-0.075-1.273-0.096l-1.64,0.522
			l0.019-0.26l0.144,0.025c0.029-0.501,0.39-0.549,0.622-0.684l0.016-0.258l-0.287-0.046c0.024-0.405-0.233-0.461-0.402-0.587
			c-0.022,0.38-0.101,0.254-0.174,0.495c-0.029,0.484-0.302,0.082-0.432-0.069l-0.707-0.374c-0.024,0.397,0.162,0.734,0.227,1.081
			c-0.688-0.11-1.014-0.521-1.488,0.545c-0.295-0.047-1.522,0.857-2.095,0.897l-0.147,0.01l-0.712-0.747l-1.398-0.329l-0.032,0.516
			l-0.015,0.259c-0.604-0.096-1.413,0.647-2.146,1.428l-0.52,0.021c1.005-0.494,2.123-2.714,3.047-2.953l0.017-0.26l0.144,0.023
			l-0.017,0.257L194.37,5.59c-0.025,0.426,0.075,0.272,0.273,0.303c0.029-0.446,0.268-0.365,0.466-0.448
			c0.027-0.477,0.413,0.181,0.558,0.35l-0.016,0.259l0.144,0.022c0.036-0.565,0.424-0.659,0.639-0.942l0.146,0.022l0.015-0.26
			c-1.331-0.211-2.739-0.148-4.063-0.058l-1.194,2.781c-0.756-0.053-1.543-0.392-2.263-0.082c-0.271,0.121-0.343,0.468-0.527,0.731
			c-0.027,0.454-0.518,0.391-0.752,0.402l-0.001,0.021l-0.604,0.026l0.141-0.805l0.29,0.047l0.017-0.26l-2.447-0.258
			c-0.924-0.011-2.069,1.44-2.883-0.019l-0.951,1.119l-0.188-0.009l0.021-0.032c0.023-0.387,0.048-0.278,0.174-0.493
			c-0.186-0.03-0.147,0.064-0.127-0.283c-0.188-0.029-0.147,0.067-0.127-0.281l-1.042,0.357c-0.021,0.347,0.035,0.266-0.158,0.236
			c-0.024,0.388,0.103,0.368,0.271,0.304c0.198,0.031,0.354,0.091,0.5,0.169l-4.424-0.206l0.004-0.065
			c0.554,0.088,0.953-0.003,1.216-0.851l-0.736,0.144l0.016-0.257c0.245,0.039,0.168-0.39,0.19-0.751
			c0.264,0.041,1.13,0.554,1.41,0.744c0.414,0.066,1.151-0.9,1.265-1.625l0.286,0.045l0.032-0.513l-1.184,0.33l-0.288-0.046
			c-0.027,0.438,0.352,0.32,0.561,0.352l-0.048,0.775l-0.146-0.023c-0.012,0.211-0.502,0.133-0.734,0.145
			c0.018-0.299,0.059-0.529-0.113-0.541c0,0-1.972-0.257-2.449-0.39l-0.031,0.519l0.978,0.677l0.145,0.021
			c-0.045,0.718-0.752,0.535-1.056,0.615l-0.145-0.022l-0.015,0.259l-0.146-0.023l-0.016,0.259l0.479,0.2l-0.925-0.042l0.014-0.227
			l0.146,0.023c0.021-0.378-0.619-0.319-0.85-0.396l-0.017,0.26l-0.145-0.023l-0.015,0.259l0.376,0.059
			c0.006,0.006,0.012,0.015,0.019,0.023l-1.425-0.066l0.008-0.135l-0.146-0.023l-0.011,0.152l-0.307-0.015l0.005-0.083
			c-0.012-0.034-0.022,0.01-0.032,0.081l-0.678-0.03l-0.002-0.008l-0.143-0.022l-0.001,0.022l-0.46-0.021
			c-0.04-0.025-0.079-0.051-0.115-0.092l-0.146-0.022l-0.006,0.104l-1.003-0.047l0.593-0.167l0.016-0.258
			c-0.342-0.054-0.581-0.541-0.817-0.911l0.019-0.259l0.573,0.091c0.019-0.298-0.004-0.293-0.148-0.375
			c-0.705-0.356-0.784,0.243-1.195,0.944c-0.026,0.435-1.695-0.043-1.855-0.557c-0.271-0.043-0.27,0.253-0.464,0.447
			c-0.027,0.477-0.776,0.14-1.022,0.1l-0.032,0.516c0.147,0.023,0.186,0.136,0.271,0.304c0.026-0.46,0.249-0.073,0.448-0.191
			l0.143,0.025c0.021-0.336,0.273-0.02,0.496,0.337l-0.225,0.004l0.002-0.039c-0.062-0.01-0.104,0.008-0.14,0.041h-0.013
			c-0.002-0.007-0.004-0.014-0.006-0.021l-0.003,0.021l-0.816,0.013c0.002-0.061-0.006-0.127-0.029-0.215l-0.29-0.044l0.031,0.263
			l-0.404,0.006c-0.341-0.339-0.772-0.396-1.21-0.522l-0.033,0.52l0.144,0.02l0.018-0.257l0.679,0.246l-0.696,0.011l-0.166,0.014
			c-0.104-0.015-0.213-0.025-0.323-0.029l-0.069-0.333c0.016-0.259-0.031-0.183-0.146-0.021c-0.237-0.039-0.324,0.185-0.462,0.447
			l0.097,0.016l-0.751,0.064c-0.005,0-0.011,0.001-0.017,0.002l-0.474,0.041l-0.613-0.098l-0.448,0.189l-2.288-0.016l-0.017-0.351
			l0.005,0.35l-1.506-0.011c0.01-0.018,0.02-0.029,0.029-0.05l0.288,0.047l0.016-0.26l-1.01-0.16
			c-0.025,0.414-0.276,0.374-0.462,0.45v0.004l-2.42,0.096c-0.175-0.256-0.409-0.367-0.766-0.345l-0.022,0.376l-0.688,0.027
			c-0.041-0.148-0.08-0.286-0.092-0.368c-0.202-0.033-0.328,0.17-0.449,0.389l-0.156,0.006l0.03-0.487l-0.145-0.024
			c-0.023,0.382-0.141,0.378-0.314,0.481c-0.042,0.026-0.092,0.032-0.135,0.052l-1.491,0.059c-0.938-0.218-1.95-0.719-2.699-0.814
			l-2.636,0.217c-0.826-0.017-1.697-0.637-2.341,0.305l-0.288-0.047l0.046-0.773l-0.56-0.351l-0.032,0.518l-0.016,0.256
			c-0.251-0.04-0.259-0.35-0.465-0.497c-0.289-0.193-0.658,0.009-0.951,0.021c-0.002-0.007-0.002-0.007-0.008-0.007l-0.144-0.024
			l0.065,1.313l-0.145-0.025l-0.191-1.593l0.032-0.518l-0.894,0.265c-0.805,0.069-1.719,0.029-2.473,0.007L134.16,6.56
			c-0.299,0.058-0.567,0.505-0.83,0.807c0.025-0.429-0.129-0.724-0.226-1.08c-0.144-0.024-0.236-0.013-0.302,0.212
			c-0.038,0.598-0.258-0.252-0.418-0.328c-0.458-0.074-0.973-0.204-1.441-0.229L130.928,6.2c0.819,0.13,1.344,0.693,2.127,0.86
			l-0.03,0.517l-0.145-0.023c-0.033,0.558-0.753-0.086-1.004-0.12c-2.423-0.228-4.967-0.487-7.355-1.005l-2.569-0.872l-0.224,1.269
			l-0.849-0.396c-0.037,0.599-0.262-0.254-0.414-0.328l-1.121-0.552c-0.979,0.317-2.671,1.156-3.489-0.181
			c-0.026,0.415-0.128,0.371-0.32,0.472c-0.018,0.299-0.899-0.07-1.153-0.182l-0.015,0.257l-0.144-0.022
			c-0.059,0.975,1.918,1.699,2.385,1.422c0.598,0.094,3.301,0.469,3.408,1.325c0.599,0.094,1.084,0.05,1.57,0.509l0.143,0.023
			l-0.014,0.259l-7.176-1.58c-1.367-0.373-2.682-0.272-4.027-0.722l-0.016,0.259c-0.243-0.039-0.075,0.461-0.047,0.774
			c-0.262-0.041-0.206-0.659-0.226-1.079c-0.28-0.045-0.521,0.461-0.774,0.619l-1.018,0.139l-0.016,0.26l2.001,0.579
			c0.014-0.235,0.205,0.186,0.431,0.068l-0.015,0.257c0.193,0.031,0.138,0.114,0.159-0.233c0.626,0.098,1.249,0.166,1.873,0.296
			l-0.017,0.258l0.145,0.025l-0.017,0.26c-0.94-0.15-2.361-0.264-3.216,0.271c0.027-0.453-0.202-0.352-0.417-0.328l0.017-0.26
			c0.202,0.033-0.051-0.204-0.128-0.28c0.028-0.459-0.136-0.151-0.289-0.044l-0.287-0.046l-0.018,0.258l0.561,0.348l-0.015,0.26
			l-0.146-0.023c-0.019,0.308-0.195,0.357-0.381,0.366c-0.167-0.072-0.331-0.145-0.496-0.217c-0.02-0.23,0.032-0.563,0.045-0.804
			c-0.215-0.035-0.427,0.297-0.607,0.426c0.02-0.34-0.031-0.265,0.159-0.236c0.021-0.364-0.165-0.792-0.224-1.082
			c0.243,0.041,0.411-0.25,0.607-0.422l0.016-0.259l0.144,0.023l0.015-0.259c-0.792-0.125-1.496,0.169-2.32-0.107l-0.016,0.257
			l-0.143-0.021l-0.016,0.258l1.137,0.442l0.143,0.021l0.016-0.256l0.145,0.022c-0.034,0.564-0.661,0.541-0.91,0.639
			c-0.027,0.403,0.098,0.299,0.271,0.302l-0.023,0.385c-0.082-0.034-0.159-0.066-0.24-0.101c-0.073-0.169-0.111-0.398-0.155-0.61
			l-0.288-0.046l-0.015,0.258c-0.103-0.016-0.165,0.041-0.216,0.12c-0.072-0.03-0.15-0.064-0.223-0.093l0.006-0.094l-0.143-0.023
			c0.022-0.34,0.066-0.25-0.128-0.281c-0.004,0.059-0.074,0.14-0.168,0.228c-2.273-0.902-4.276-1.538-5.6-1.5
			c-0.377,0.009-2.413,0.003-5.207-0.007l0.029-0.461l-0.434-0.068c-0.02,0.347,0.036,0.266-0.158,0.235
			c-0.002,0.035-3.089,0.136-7.618,0.268C79.574,7.051,73.046,7.054,72.29,7.149h4.012l0.586,0.175
			C64.659,7.658,50.221,8.039,50.219,8.109L49.81,8.086l17.481-1.832l-33.865,0.94l-0.85-0.046c-2.461-0.078-4.92-0.163-7.376-0.256
			l-6.933-0.256c-0.038-0.235-0.228-0.164-0.4-0.191c-0.004,0.067,0.001,0.123,0.005,0.178l-0.597-0.021l0.03-0.505l-0.288-0.044
			l-0.016,0.256l-0.288-0.046c-0.021,0.348-0.061,0.251,0.128,0.283l-0.003,0.04L9.01,6.508C5.39,6.31,3.347,7.877,1.923,9.529
			c-1.285,1.491-0.406,5.306-0.894,7.953c-0.27,1.346-0.238,2.676-0.286,3.885l-0.161,3.724l-0.077,5.29
			c-0.101,1.211-0.189,2.938,0.097,4.486c0.263,1.572-0.318,7.612,0.631,9.737c1.324,2.963,0.229,3.229,3.819,3.998
			c1.409,0.303,6.407,0.028,7.834,0.266c0.342,0.066,0.736,0.115,1.137,0.156c0.436,0.04,0.523,0.053,1.002,0.081l1.726,0.112
			l7.375-0.784c4.586,0.4,8.233-0.089,12.898,0.167c1.801,0.107,53.727,0.496,55.217-0.09c1.853,0,7.225,0.647,8.561,0.108
			c1.163,0,2.645,0.099,3.623-0.29c4.117,0,9.095,0.18,12.82-0.092l4.13,0.073c9.203,0,15.871-0.995,24.861-0.636
			c2.139,0.09,6.76,0.989,8.559,0.26l13.829-0.477c7.799,0.438,16.953,0.426,24.968,0.75l17.105-0.602
			c1.523-0.39,5.584,0.073,7.252,0l6.88,0.602c1.573,0,6.308-0.334,7.623-0.801c7.502,0,10.908,1.086,18.161,0.653
			c1.554-0.089,3.58,0.115,4.926-0.416c1.308,0,2.872,0.138,3.953-0.286l2.633-0.288l5.926-0.118
			c2.544,0.081,6.378,0.587,8.561-0.458l7.244-0.262c0.358,0.006,0.787,0.042,1.25,0.085c0.491,0.038,0.881,0.1,1.535,0.109
			c1.199,0.029,7.761,0.087,8.438-0.369c3.393-0.915,3.236-1.419,3.08-7.142C298.488,39.095,299.49,36.879,299.753,36.266z
			 M119.599,5.964c0.256,0.041,0.406,0.278,0.544,0.61L119.599,5.964z M17.129,6.597V6.59l0.053,0.008L17.129,6.597z M28.025,45.7
			l7.529-0.083C33.219,45.859,31.01,46.084,28.025,45.7z M122.29,9.524l-0.288-0.047c0.022-0.371,0.148-0.359,0.319-0.471
			L122.29,9.524z M123.042,9.12c0.265,0.044,0.406,0.285,0.544,0.61L123.042,9.12z M128.353,7.877l-0.016,0.259l-0.143-0.023
			l0.031-0.517l0.017-0.259l0.144,0.023l-0.015,0.26l0.288,0.047C128.631,8.093,128.556,7.91,128.353,7.877z M135.794,7.495
			c-0.253-0.04-0.497,0.623-0.641,0.941c-0.502-0.366-1.119-0.397-1.712-0.532l0.015-0.26l0.147,0.024l0.014-0.256l2.033,0.06
			c0.02-0.337-0.029-0.264,0.161-0.235L135.794,7.495z M136.035,8.316l-0.146-0.023c0.025-0.396,0.146-0.351,0.32-0.47
			c0.021-0.34-0.029-0.265,0.16-0.235c0.028-0.458,0.164-0.088,0.287,0.047C136.633,8.029,136.218,8.134,136.035,8.316z
			 M137.299,9.039l-0.145-0.022l0.065-1.034l0.144,0.023l0.016-0.259l-0.145-0.022l0.016-0.26
			C137.65,7.529,137.372,8.661,137.299,9.039z M138.323,8.94c-0.159-0.024-0.185,0.045-0.305,0.213l-0.194-1.596
			c0.211,0.034,0.389,0.421,0.546,0.608L138.323,8.94z M138.738,9.27c-0.188-0.031-0.138-0.105-0.16,0.235l-0.129-0.282
			c0.194,0.032,0.174-0.013,0.305-0.213L138.738,9.27z M141.021,9.769l-0.562-0.061c-0.292-0.436-1.048-0.749-1.242-1.147
			l0.145,0.023c0.021-0.337-0.028-0.265,0.162-0.235l-0.017,0.257c0.622,0.1,1.108,0.374,1.711,0.534
			C141.205,9.351,141.119,9.567,141.021,9.769z M141.793,9.232c-0.021,0.345,0.036,0.264-0.158,0.234l-0.023,0.366l-0.116-0.012
			l0.155-0.61L141.793,9.232l0.016-0.258l0.291,0.044C142.073,9.446,141.969,9.287,141.793,9.232z M142.515,9.347l-0.289-0.046
			c0.024-0.397,0.145-0.354,0.321-0.471L142.515,9.347z M144.267,9.218l-0.318,0.084c-0.113-0.052-0.09-0.278,0.038-0.242
			l0.018-0.26c0.192,0.03,0.146-0.058,0.126,0.281l0.144,0.022L144.267,9.218z M152.698,8.51l-0.144,0.005
			C152.59,8.456,152.64,8.465,152.698,8.51z M154.15,44.424l-4.674-0.254l11.741-0.308L154.15,44.424z M169.146,8.021l-1.601,0.024
			l0.009-0.146l0.592-0.165l1.008,0.159L169.146,8.021z M190.723,8.354l0.145,0.024l-0.012,0.184l-0.227,0.01
			C190.662,8.501,190.699,8.426,190.723,8.354z M189.554,8.431c0.071,0.012,0.148,0.085,0.227,0.178l-0.274,0.011L189.554,8.431z
			 M188.818,8.576l-0.013,0.075l-0.097,0.004C188.747,8.629,188.788,8.604,188.818,8.576z M186.117,8.764l-0.145-0.022
			c0,0.006-0.005,0.008-0.005,0.016l-0.692-0.034C185.559,8.657,185.839,8.593,186.117,8.764z M183.652,8.632l-0.001,0.017
			l-0.147-0.007C183.553,8.641,183.604,8.633,183.652,8.632z M174.521,8.225l-0.089-0.003c0-0.003-0.006-0.008-0.006-0.01
			L174.521,8.225z M187.938,44.108c-6.202-0.424-10.008-0.289-16.346-0.47l-2.129,0.008l5.014-0.538l17.284,0.822L187.938,44.108z
			 M194.436,6.906l0.019-0.263l0.287,0.046C194.713,7.119,194.639,6.936,194.436,6.906l-0.017,0.256l-0.143-0.024
			C194.297,6.799,194.247,6.874,194.436,6.906z M192.192,8.506c0.507-0.29,0.902-0.565,1.028-0.751l0.017-0.26l2.384,0.865
			L192.192,8.506z M196.282,8.333c0.103-0.147,0.339-0.078,0.53-0.022L196.282,8.333z M212.342,6.618l-0.018,0.259
			c-0.127-0.042-0.234,0.029-0.255-0.202C212.165,6.729,212.345,6.634,212.342,6.618z M211.107,5.38l0.591-0.166l-0.605,0.425
			L211.107,5.38z M207.012,5.771c0.248,0.041,0.061,0.289-0.033,0.518L207.012,5.771z M205.669,6.34l0.146,0.023l-0.033,0.518
			l-0.417-0.327C205.521,6.579,205.576,6.506,205.669,6.34z M204.658,6.18l-0.015,0.258L204.532,5.9
			C204.568,5.905,204.834,6.145,204.658,6.18z M212.495,8.113c-0.124-0.048-0.243-0.085-0.314-0.117l-0.013,0.218l-0.083,0.025
			l-0.064-0.01l-0.002,0.03l-1.403,0.433l-8.69-0.599l-1.281,0.055c0.044-0.194,0.11-0.391,0.146-0.498
			c-0.033,0.558,0.673,0.265,0.865,0.138l0.143,0.024c-0.021,0.348-0.061,0.25,0.128,0.28l0.017-0.259l2.031,0.063l1.576,0.072
			c0.785-0.144,1.188-0.75,1.897,0.221l0.015-0.26c0.428,0.067,0.721-0.352,1.168-0.077l0.289,0.047l0.03-0.517l0.83,0.409
			l1.347-0.259c0.68-0.022,1.262,0.103,1.889-0.026l0.015-0.258c0.197,0.032,0.202,0.346,0.224,0.631L212.495,8.113z M214.737,7.424
			c0.06-0.05,0.12-0.097,0.181-0.136c0.024-0.41,0.145-0.152,0.283-0.007L214.737,7.424z M215.562,6.724
			c0.03-0.524,0.313-0.153,0.413-0.049L215.562,6.724z M221.252,5.948l0.131-0.061C221.344,5.996,221.191,6.166,221.252,5.948z
			 M221.64,10.763c-0.93,0.012-1.02-0.259-1.012-0.48l4.037,0.175C223.707,10.635,222.706,10.748,221.64,10.763z M222.071,6.887
			c0.814-0.182,2.196-0.103,2.603,0.046c0.146,0.056,0.249,0.147,0.345,0.256L222.071,6.887z M230.111,8.84l-0.221-0.105
			l0.457,0.022C230.27,8.786,230.189,8.812,230.111,8.84z M233.204,5.501l-0.797,0.109L232.182,5.6
			c0.021-0.364,0.197-0.501,0.335-0.731l0.722,0.115L233.204,5.501z M265.659,4.745c0.224,0.034,0.145,0.235,0.112,0.539
			l-0.128-0.281L265.659,4.745z M255.47,7.298l0.013,0.101c-0.041-0.002-0.083-0.003-0.124-0.005l-0.035-0.119L255.47,7.298z
			 M250.502,5.641l-0.011,0.167c-0.033-0.001-0.065-0.003-0.099-0.003C250.422,5.77,250.447,5.726,250.502,5.641z M248.182,5.532
			c0.502,0.08,0.893,0.042,1.224,0.242c-0.477-0.018-0.964-0.027-1.439-0.046C248.044,5.667,248.118,5.601,248.182,5.532z
			 M239.045,5.125l-0.273-0.303c-0.033,0.547-0.201-0.104-0.271-0.306C238.753,4.555,238.897,4.799,239.045,5.125z M237.909,4.684
			c0.122,0.017,0.263,0.074,0.271,0.302c-0.021,0.349,0.033,0.268-0.159,0.235l-0.016,0.26l-0.145-0.023L237.909,4.684z
			 M262.459,44.412c-3.785,0.324-7.532,0.234-11.512,0.399l-8.231,0.197c-1.799-0.099-3.508-0.178-5.165-0.245l31.544-1.082
			L262.459,44.412z M269.619,4.08c-0.063,0.027-0.125,0.055-0.189,0.084c0.053-0.039,0.115-0.063,0.192-0.115
			C269.621,4.062,269.62,4.068,269.619,4.08z M270.01,4.914l0.032-0.514c0.052,0.007,0.099-0.011,0.146-0.031
			c-0.005,0.167,0.048,0.385,0.097,0.534C270.192,4.905,270.101,4.914,270.01,4.914z M273.772,5.25l-0.691-0.379
			c-0.251-0.04-0.502-0.057-0.751-0.061c0.395-0.018,0.771-0.092,1.136-0.249c-0.026,0.429,0.073,0.274,0.271,0.306
			c0.023-0.364,0.031-0.037,0.16-0.237l0.435,0.069L273.772,5.25z M274.378,4.826l0.017-0.257l0.05-0.01l0.01,0.267
			C274.428,4.828,274.403,4.822,274.378,4.826z M276.411,4.888l-0.144-0.022l-0.017,0.258c-0.483-0.077-0.962-0.263-1.466-0.298
			c0.1-0.093,0.197-0.203,0.281-0.269c-0.027,0.44,0.8-0.001,1.432-0.36C276.449,4.394,276.435,4.658,276.411,4.888z M285.24,5.169
			l0.123,0.279l-0.138-0.022L285.24,5.169z M285.333,5.697c-0.015,0.001-0.03-0.003-0.045-0.003l0.161-0.05l0.059,0.131
			C285.06,6.196,285.478,5.685,285.333,5.697z M290.065,42.98c-0.142,0.046-0.288,0.068-0.432,0.106
			c0.824-0.235,1.613-0.553,2.358-0.94C291.378,42.479,290.74,42.775,290.065,42.98z M266.287,4.062l-0.005-0.001
			c0.007,0.058,0.015,0.092,0.022,0.147l0.056,0.008L266.287,4.062z M265.704,3.711c-0.056-0.147-0.112-0.287-0.16-0.408
			c-0.009,0.156-0.049,0.291-0.101,0.415C265.489,3.703,265.565,3.701,265.704,3.711z M13.818,4.855l0.431,0.07
			C14.129,4.818,13.944,4.78,13.818,4.855z M109.648,5.785l-0.88,0.121l-0.034,0.518l0.436,0.067L109.648,5.785z M113.888,5.416
			c0.02-0.339-0.029-0.265,0.16-0.234l0.016-0.26L113.92,4.9c0.018-0.3-1.616-0.795-1.969-1.096
			c-0.022,0.347-0.199,0.555-0.335,0.728l-0.016,0.26l-0.144-0.025l0.015-0.256c0.204,0.03-0.05-0.203-0.127-0.283
			c0.025-0.42-0.07-0.271-0.271-0.302l-0.064,1.032l2.001,0.58L113.888,5.416z M110.864,4.935l0.063-1.032l-0.736,0.143
			C109.844,3.99,110.701,4.869,110.864,4.935z M109.71,4.752l0.017-0.257c0.202,0.031-0.077-0.234-0.128-0.283
			c-0.028,0.428-0.103,0.246-0.303,0.213C109.269,4.859,109.512,4.721,109.71,4.752z M107.694,4.431l-0.417-0.325
			C107.251,4.54,107.496,4.4,107.694,4.431z M131.775,5.389c-0.206-0.032-0.224,0.192-0.318,0.473l0.289,0.045L131.775,5.389z
			 M124.127,4.435c0.204,0.032-0.052-0.202-0.127-0.28c-0.019,0.298,0.027,0.362,0.112,0.539L124.127,4.435z M130.176,5.397
			l-0.497-1.385l-0.289-0.044L129.2,4.72l-0.015,0.256L129.328,5C129.302,5.459,129.938,5.357,130.176,5.397z M126.016,4.473
			c-0.025,0.438,0.217,0.297,0.415,0.327l0.609-0.424c0.026-0.435-0.24-0.406-0.4-0.586c0.552,0.088-0.215-0.294-0.848-0.394
			l-0.018,0.257C126.022,3.693,125.983,4.126,126.016,4.473z M125.167,4.078l-0.015,0.257l0.559,0.352L125.167,4.078z
			 M124.559,4.503l0.289,0.046C124.731,4.238,124.711,4.463,124.559,4.503z M130.721,3.657l-0.545-0.608
			C130.146,3.533,130.502,3.557,130.721,3.657z M158.131,7.447l-0.721-0.113l-0.016,0.257l0.72,0.114L158.131,7.447z M161.026,7.647
			l0.175-0.496l1.024-0.099l1.137,0.442l0.591-0.166l0.016-0.259c-1.271-0.202-2.255-1.394-3.616-0.314l-0.144-0.023l-0.015,0.26
			C160.527,7.043,160.799,7.35,161.026,7.647z M156.449,6.397l0.016-0.257l-0.288-0.048c-0.238-0.038-0.325,0.186-0.464,0.45
			l0.145,0.022L156.449,6.397z M154.721,6.122c0.217,0.034-0.809-0.421-1.136-0.44l-0.032,0.517
			c0.396,0.064,0.773-0.015,1.151,0.184L154.721,6.122z M152.992,5.847c-0.025,0.427,0.073,0.275,0.272,0.305l-0.401-0.583
			C152.842,5.913,152.802,5.817,152.992,5.847z M152.561,5.779l-0.706-0.373l-0.03,0.517l0.721,0.115L152.561,5.779z M158.05,6.391
			l-0.016,0.256l1.15,0.183C158.873,6.449,158.493,6.494,158.05,6.391z M164.675,7.443l-0.416-0.325
			C164.231,7.553,164.476,7.412,164.675,7.443z M182.274,7.373l0.031,0.051l0.038-0.041L182.274,7.373z M182.996,7.487
			c-0.038,0.605,0.757-0.124,0.894-0.38c0.194,0.03,0.14,0.113,0.163-0.234l-0.146-0.023l0.031-0.52l-0.434-0.067l-0.031,0.518
			c-0.021,0.345,0.034,0.265-0.159,0.234c0.028-0.459-0.136-0.15-0.288-0.046c-0.26-0.043-0.013-0.506,0.047-0.775l-1.168,0.077
			l0.048-0.776c0.021-0.324-1.577-0.578-1.808,1.016l-0.145-0.022l-0.016,0.259l0.434,0.068l0.047-0.775l0.145,0.023l0.017-0.26
			l0.287,0.047L180.721,6.6l-0.014,0.26l1.904-0.218L182.594,6.9l0.146,0.022l-0.396,0.46l0.363,0.058L182.996,7.487z M170.77,7.628
			l-0.016,0.261l0.866,0.137l0.205-1.011c-0.188-0.031-0.138-0.102-0.159,0.234c-0.189-0.029-0.268-0.36-0.4-0.584
			c-0.033,0.534-0.143,0.631-0.352,0.988L170.77,7.628z M172.817,7.433l-0.015,0.259l-0.146-0.024l-0.015,0.26l0.864,0.135
			l0.017-0.257l-0.418-0.327L172.817,7.433z M168.882,5.244c-0.041,0.661-0.941,0.949-1.232,1.108l-0.017,0.257l-0.143-0.021
			l-0.016,0.257l0.719,0.114c0.314-0.308,0.572-0.651,0.799-1.178l0.146,0.025l0.016-0.26l-0.146-0.023
			C169.029,5.185,169.074,5.273,168.882,5.244z M177.604,7.67l-0.033,0.52l1.152,0.181l0.016-0.258
			c0.194,0.031,0.139,0.113,0.161-0.237l-1.009-0.16L177.604,7.67z M163.328,5.665l-0.016,0.259
			C163.31,5.663,163.473,5.688,163.328,5.665z M171.713,6.477l0.45-0.191l0.015-0.258c-0.353-0.056-0.582,0.013-0.88,0.122
			C171.271,6.583,171.515,6.445,171.713,6.477z M168.001,5.364l0.145,0.023c0.684-0.722,1.954-0.301,2.768-0.082l0.014-0.26
			c0.16,0.025,0.214-0.046,0.306-0.211c-0.188-0.031-0.149,0.066-0.128-0.281c-0.19-0.029-0.149,0.065-0.128-0.281
			c-0.888-0.142-2.764-0.089-3.52,0.484c-0.189-0.03-0.141-0.106-0.162,0.235C167.6,5.04,167.795,5.101,168.001,5.364z
			 M174.274,5.057c0.448,0.072,1.365,0.389,1.742,0.014l0.146,0.024l0.015-0.258c-1.391-0.22-2.821-0.263-4.191-0.407
			c-0.021,0.349,0.032,0.269-0.161,0.236l-0.032,0.516c0.505,0.08,0.952,0.041,1.442,0.23L174.274,5.057z M185.65,6.867l0.434,0.068
			c0.054-0.89-1.254-0.584-1.569-0.513l-0.018,0.26l-0.143-0.021l-0.016,0.256l0.574,0.091L185.65,6.867z M177.873,5.629
			c0.028-0.461-0.141-0.146-0.287-0.044l-0.017,0.256l0.146,0.023L177.873,5.629z M176.577,5.423
			c-0.382-0.062,0.345,0.299,0.417,0.327l0.046-0.774c0.196,0.029,0.14,0.113,0.161-0.233l-0.721-0.116l-0.016,0.258
			C176.705,4.922,176.599,5.067,176.577,5.423z M187.986,6.714l0.016-0.257l-0.145-0.023c0.02-0.341,0.067-0.25-0.125-0.28
			c-0.023,0.345,0.032,0.267-0.163,0.235l-0.047,0.775l0.304-0.213C187.848,6.61,187.799,6.684,187.986,6.714z M198.355,3.45
			l-0.145-0.022c-0.028,0.437,0.228,0.641,0.383,0.844L198.355,3.45z M202.355,4.607l-0.544-0.606
			C201.781,4.499,202.129,4.507,202.355,4.607z M194.657,2.081l0.146,0.022c-0.024,0.347-0.062,0.25,0.125,0.282l0.016-0.258
			c0.368,0.057-0.331-0.282-0.414-0.328l-0.032,0.516C194.693,2.347,194.636,2.429,194.657,2.081z M213.412,4.54
			c0.204,0.031-0.05-0.203-0.128-0.282c-0.021,0.323,0.011,0.337,0.112,0.541L213.412,4.54z M195.97,2.03l-0.416-0.328
			C195.526,2.138,195.771,1.997,195.97,2.03z M65.326,4.752l0.256,0.04c-0.042,0.606-0.107,0.438,0.222,0.492l0.028-0.452
			c0.641,0.101-0.58-0.493-0.726-0.572l-0.056,0.902C65.391,5.219,65.289,5.362,65.326,4.752z M67.624,4.663l-0.727-0.575
			C66.849,4.854,67.277,4.605,67.624,4.663z M216.933,4.054l0.142,0.024l1.347-0.571c0.025-0.419-0.072-0.269-0.274-0.303
			c0.019-0.29-0.024-0.354-0.111-0.538c-0.014,0.207-0.03,0.475-0.176,0.491l-0.879,0.123c-0.022,0.347-0.042,0.304-0.178,0.493
			C216.996,3.806,216.953,3.715,216.933,4.054z M214.676,2.913l-0.288-0.046c0.033-0.563-0.915,0.231-1.057,0.614l1.329-0.309
			L214.676,2.913z M215.105,2.982l-0.015,0.258c0-0.091,0.012-0.175,0.032-0.256L215.105,2.982z M215.875,2.324
			c-0.264-0.042-0.644,0.211-0.752,0.661l0.129,0.021C215.296,2.289,215.809,3.404,215.875,2.324z M217.571,3.113
			c-0.098-0.25-0.235-0.404-0.4-0.583C217.146,2.948,217.394,2.979,217.571,3.113z M216.866,2.739l0.033-0.514
			c-0.271-0.043-0.575,0.356-0.771,0.659l0.435,0.069L216.866,2.739z M211.73,1.141l-0.017,0.258
			c0.004-0.072,0.039-0.164,0.081-0.247L211.73,1.141z M211.795,1.152l0.222,0.035C212.04,0.838,211.893,0.964,211.795,1.152z
			 M218.72,3.035l-0.017,0.258C218.702,3.031,218.863,3.056,218.72,3.035z M267.369,3.171l-0.559-0.352l0.096,0.797L267.369,3.171z
			 M268.651,3.635l-0.546-0.607C268.078,3.494,268.433,3.544,268.651,3.635z M267.095,4.95l-0.13-0.278l-0.017,0.254L267.095,4.95z
			 M266.821,4.647l0.015-0.248l-0.125-0.27l0.147,0.023l0.015-0.258l-0.718-0.112l0.132,0.279l0.298,0.047
			C266.631,4.329,266.696,4.626,266.821,4.647z M266.981,4.412l-0.144-0.022l-0.002,0.009l0.129,0.273L266.981,4.412z
			 M267.286,4.198l-0.145-0.022c-0.028,0.485,0.203,0.66,0.385,0.844l0.318-0.469l0.017-0.262l0.146,0.025l0.017-0.26l-0.721-0.113
			L267.286,4.198z M282.728,4.685l0.304-0.212l0.032-0.519c-0.188-0.03-0.141-0.102-0.163,0.237l-0.591,0.167
			C282.285,4.795,282.53,4.656,282.728,4.685z"/>
	</g>
</g>
</svg>
