<?xml version="1.0" encoding="utf-8"?>
<!-- Generator: Adobe Illustrator 15.1.0, SVG Export Plug-In . SVG Version: 6.00 Build 0)  -->
<!DOCTYPE svg PUBLIC "-//W3C//DTD SVG 1.1//EN" "http://www.w3.org/Graphics/SVG/1.1/DTD/svg11.dtd">
<svg version="1.1" id="Layer_1" xmlns="http://www.w3.org/2000/svg" xmlns:xlink="http://www.w3.org/1999/xlink" x="0px" y="0px"
	 width="300px" height="150px" viewBox="0 0 300 150" enable-background="new 0 0 300 150" xml:space="preserve">
<g>
	<g>
		<path fill="#0080FF" d="M264.291,4.536l0.142,0.026c0.108-0.195,0.277-0.366,0.451-0.547c-0.225,0.067-0.425,0.165-0.572,0.154
			L264.291,4.536z M290.104,5.011c-0.017,0.02-0.056,0.051-0.131,0.038c0.038,0.005,0.076-0.014,0.112,0
			C290.095,5.025,290.099,5.019,290.104,5.011z M265.356,3.407c0.035-0.068,0.066-0.143,0.096-0.219
			C265.383,3.214,265.383,3.278,265.356,3.407z M265.73,3.181c-0.008-0.001-0.012-0.001-0.019-0.001
			c0.006,0.016,0.011,0.033,0.016,0.049L265.73,3.181z M264.354,3.385l0.143,0.026l0.017-0.288l-0.285-0.052l-0.017,0.288
			l-0.146-0.027c-0.036,0.647,0.067,0.825,0.246,0.837l0.027-0.495L264.354,3.385z M298.295,136.186l-0.253-0.154
			c0.342-1.132,0.548-2.288,0.64-3.427c0.205-0.784,0.142-1.656,0.081-2.454c0.041-0.463,0.064-0.931,0.064-1.408V21.067
			c0-1.424-0.196-2.798-0.552-4.093c-0.117-0.497-0.259-0.987-0.427-1.468c-0.01-0.077-0.012-0.153-0.023-0.229l1.019-1.506
			c-0.292-1.642-0.494-3.241-0.771-4.88c-0.309-1.837-0.62,4.585-1.007,2.808c-0.207-0.963,0.315-3.192,0.315-4.176
			c0-1.621-0.417-2.593-1.405-2.628c-0.734-0.026-4.27-0.094-5.858,0.154c-0.025,0.438-0.977-0.688-1.945-0.301
			c-0.082-0.347-0.162-0.767-0.24-1.233l0.17,1.265c-0.093,0.039-0.181,0.074-0.295,0.137l-0.347,0.192
			c-0.271-0.048,0.233-1.005-0.009-0.767c-0.031,0.604-0.173-0.123-0.271-0.34c0.021-0.379,0.065-0.279-0.127-0.312
			c-0.003,0.048-0.053,0.132-0.12,0.227c-0.084-0.465-1.15,0.34-1.16,0.511l-0.145-0.026l-0.071-0.037l0.006-0.084
			c-0.06-0.01-0.14-0.013-0.208-0.02l-0.412-0.214l0.071,0.179c-0.686-0.035-1.538,0.028-2.074,0.172l-0.031,0.575
			c0.403,0.071,1.846-0.193,2.256,0.014l-0.369,0.295c-0.155-0.078-0.301-0.188-0.429-0.326c-0.063,1.126-2.015,0.752-2.515,0.718
			l0.02-0.289c0.566,0.102,0.151,0.229,0.656-0.078l0.015-0.291l-0.204-0.619c-0.675,0.143-1.381,0.244-2.02,0.56
			c-0.764,0.384-1.261-0.885-2.127-0.617c-0.544-0.098-1.002-0.038-1.613-0.109c0.015-0.271,0.095-0.474,0.181-0.672
			c0.129-0.083,0.23-0.144,0.308-0.186l0.004,0.048c-0.022,0.447,0.09,0.451,0.258,0.626l0.094-1.728l-0.287-0.052l-0.015,0.288
			l-0.146-0.026l0.055,0.505c-0.656-0.062-1.161,0.256-1.764,0.302c-0.033,0.003-0.063,0.006-0.094,0.01l0.013-0.236
			c-0.186-0.033-0.327,0.108-0.46,0.28c-1.459,0.144-2.785,0.327-4.164,0.803l-0.017,0.286l0.88-0.134
			c0.224,0.04,0.438,0.057,0.65,0.062c-0.596,0.01-1.185,0.075-1.771,0.098l0.04-0.715c0.128-0.147,0.239-0.373,0.328-0.607
			c-0.091-0.017-0.383,0.096-0.747,0.265l0.007-0.129l-1.47,0.321l-0.016,0.286l-0.145-0.026l-0.015,0.29l0.158,0.027
			c-0.521,0.298-0.956,0.577-1.067,0.709c-0.024,0.458-0.124,0.265-0.297,0.209c-0.53-0.152-0.652-0.483-0.767-1.403l-0.09-0.017
			c-0.025,0.459-0.125,0.414-0.319,0.524c0.019-0.332-0.071-0.688-0.178-1.012l-0.013,0.238l-0.448,0.212
			c0.051-0.112,0.074-0.202,0.09-0.272c-0.13,0.236-0.303,0.43-0.473,0.609c0.118-0.037,0.241-0.064,0.366-0.051l-0.016,0.29
			l0.145,0.026c-0.026,0.496-0.681,0.306-0.896,0.422c-0.516-0.092-0.98,0.008-1.422-0.542c-0.024,0.422-0.62,0.009-0.87-0.019
			l-3.47,0.41l-1.979,0.125c-0.945,0.205-0.263-0.525-1.132,0.247c0.025-0.469-1.595,0.832-1.797,0.798l0.032-0.576l0.738-0.162
			l0.03-0.575l-1.162,0.022c-0.886,0.371-2.218-0.363-3.161-0.304l0.016-0.289l0.288,0.051c0.025-0.459,0.295-0.42,0.465-0.497
			c-0.028,0.501,0.273,0.146,0.429,0.075l-0.015,0.288c0.226,0.04,0.303-0.229,0.464-0.5l0.016-0.289l-0.146-0.023
			c0.028-0.467-0.06-0.276-0.258-0.301c-0.702-0.087-2.886-0.25-3.243,0.55c-0.013,0.244-0.945-0.339-1.282-0.379
			c-0.507-0.053-1.404,0.506-1.726-0.441l-0.144-0.025l-0.207,1.125l-0.019,0.288c-0.709-0.127-1.266-0.578-1.996-0.198l-1.25,1.08
			l0.064-1.153l-0.577-0.102c-0.022,0.421,0.126,0.613,0.242,0.914c-0.459-0.083-0.641-0.333-0.975-0.753l-0.019,0.287
			c-0.295-0.054,0.006,0.383,0.113,0.604c-0.393-0.072-0.658-0.191-0.992-0.468c0.031-0.558,0.403-0.637,0.623-0.761
			c-0.021,0.385-0.063,0.279,0.127,0.312c0.027-0.485,0.392-0.42,0.608-0.473l0.049-0.865c-0.455-0.079-1.162,0.603-1.521,1.186
			l-0.144-0.025c-0.012,0.199-0.441-0.134-0.72-0.128c0.065-1.197-0.966,0.3-1.088,1.261l-0.144-0.026
			c0.023-0.448-0.115-0.882-0.224-1.203l0.015-0.287c-0.301-0.055-0.684,0.441-0.912,0.71l-0.143-0.026l-0.016,0.29l0.144,0.023
			l-0.016,0.288l0.431,0.079l0.017-0.287c0.194,0.033,0.14,0.124,0.162-0.263l0.141,0.025c-0.026,0.493-0.133,0.958-0.351,1.1
			l-0.015,0.276l-0.133-0.004c-0.001-0.081-0.003-0.175,0.005-0.296l-0.144-0.027l0.015-0.287c-0.25-0.046-0.541,0.255-0.753,0.447
			l-0.142-0.025c0.033-0.613,0.214-1.262,0.254-1.994c-0.188-0.031-0.138-0.112-0.159,0.267l-1.008-0.181l-0.032,0.579l0.144,0.023
			l-0.015,0.288l0.878-0.133c-0.019,0.385,0.034,0.294-0.157,0.262l-0.049,0.861c-0.433-0.075-0.812-1.006-1.072-1.641
			c0.027-0.516-0.536-0.26-0.739-0.187c-1.067,0.402-2.165,0.435-3.218,0.649l-2.235,0.694c-0.651-0.07-1.701,0.023-2.206,0.845
			l0.448-0.213c-0.037,0.686-1.17,0.61-1.487,0.61l0.031-0.577l0.432,0.076c0.014-0.237,0.003-0.286,0.039-0.287
			c-0.321-0.063-1.24-0.219-1.623,0.006l-0.142-0.024l0.015-0.29l-0.144-0.023c-0.041,0.709,0.824,0.708,1.121,0.778l-0.018,0.288
			l-2.479,0.144c0.036-0.658,0.507-1.12,0.67-1.625l0.145,0.024l0.017-0.287L221.4,3.542l-2.209,0.311l-0.015,0.288l-0.145-0.026
			l-0.014,0.287l1.165-0.082c0.311,0.055-0.347,0.557-0.607,0.474l-0.016,0.288c-0.253-0.046-0.245,0.42-0.334,0.813l0.591-0.187
			c-0.02,0.339-0.674,0.514-0.968,0.644l-0.085-0.011l0.014-0.235c-0.258-0.044-0.104-0.764-0.08-1.179l-1.04,0.398
			c-0.026,0.452,0.133,0.635,0.24,0.917l-0.146-0.028c-0.002,0.042-0.01,0.06-0.016,0.084l-0.094,0.032
			c-0.127-0.131-0.333-0.644-0.435-0.793c0.027-0.549-0.517-0.083-0.512-1.254c-0.427-0.074-0.766,0.619-1.2,0.66
			c-0.643-0.115-1.161,0.05-1.759,0.269c-0.059,1.081-0.677,1.446-1.104,1.55l0.223-1.415l-0.144-0.023l0.015-0.29
			c-0.205-0.038-0.313,0.29-0.463,0.5l0.017-0.29l-0.286-0.05c0.015-0.296,0.073-0.358,0.175-0.551
			c0.342,0.06,0.584-0.232,0.768-0.738l-1.215,0.95l0.016-0.289c-0.611-0.107-1.634,1.017-1.729,2.309l-0.286-0.049l-0.017,0.288
			l-0.145-0.027l-0.031-2.039l0.143,0.024l0.016-0.288l-1.183,0.197c-1.677,0.104-3.325,0.159-4.944,0.17l-0.015,0.29l0.144,0.024
			l-0.015,0.289l0.158-0.261l0.145,0.025c-0.021,0.386-0.03,0.34-0.19,0.429c-0.425,0.251-0.829-0.083-1.272-0.107l-1.642,0.583
			l0.02-0.29l0.144,0.029c0.029-0.559,0.39-0.612,0.622-0.764l0.016-0.287l-0.288-0.051c0.024-0.452-0.232-0.515-0.4-0.655
			c-0.022,0.424-0.103,0.284-0.175,0.553c-0.029,0.539-0.302,0.091-0.432-0.078l-0.706-0.415c-0.024,0.442,0.161,0.818,0.226,1.204
			c-0.688-0.123-1.014-0.581-1.486,0.607c-0.295-0.052-1.522,0.957-2.097,1l-0.145,0.011l-0.713-0.833l-1.398-0.367l-0.031,0.575
			l-0.015,0.289c-0.605-0.107-1.414,0.721-2.146,1.592l-0.521,0.024c1.006-0.551,2.123-3.026,3.046-3.292l0.018-0.289l0.144,0.026
			l-0.017,0.287l-0.145-0.024c-0.025,0.475,0.076,0.305,0.275,0.339c0.028-0.498,0.268-0.408,0.465-0.5
			c0.027-0.531,0.414,0.202,0.558,0.391l-0.016,0.289l0.143,0.025c0.037-0.63,0.424-0.734,0.641-1.05l0.144,0.025l0.016-0.29
			c-1.331-0.235-2.739-0.166-4.063-0.064l-1.193,3.101c-0.756-0.06-1.542-0.438-2.262-0.092c-0.272,0.134-0.344,0.521-0.526,0.815
			c-0.029,0.506-0.519,0.436-0.754,0.447l-0.001,0.024l-0.604,0.028l0.142-0.897l0.29,0.052l0.016-0.29l-2.447-0.288
			c-0.924-0.012-2.069,1.605-2.881-0.021l-0.951,1.248l-0.189-0.01l0.021-0.036c0.024-0.431,0.049-0.31,0.176-0.549
			c-0.187-0.034-0.148,0.071-0.128-0.316c-0.187-0.033-0.147,0.074-0.127-0.313l-1.04,0.398c-0.021,0.387,0.035,0.296-0.159,0.263
			c-0.024,0.433,0.104,0.41,0.271,0.338c0.198,0.035,0.354,0.103,0.501,0.189l-4.422-0.229l0.004-0.073
			c0.552,0.099,0.951-0.003,1.214-0.949l-0.737,0.161l0.017-0.287c0.244,0.043,0.169-0.435,0.191-0.837
			c0.263,0.045,1.128,0.618,1.409,0.829c0.415,0.073,1.149-1.002,1.264-1.812l0.286,0.05l0.031-0.571l-1.182,0.368l-0.288-0.052
			c-0.027,0.488,0.353,0.357,0.56,0.393l-0.049,0.865l-0.143-0.027c-0.012,0.235-0.503,0.148-0.735,0.162
			c0.018-0.334,0.059-0.59-0.114-0.603c0,0-1.971-0.287-2.448-0.436l-0.031,0.578l0.978,0.754l0.145,0.024
			c-0.045,0.801-0.751,0.597-1.056,0.686L175.459,7.5l-0.015,0.289L175.3,7.762l-0.016,0.29l0.478,0.223l-0.925-0.047l0.014-0.253
			L174.998,8c0.021-0.421-0.619-0.355-0.851-0.442l-0.016,0.29l-0.146-0.025l-0.015,0.289l0.378,0.065
			c0.006,0.007,0.012,0.016,0.019,0.026l-1.426-0.074l0.008-0.15l-0.146-0.027l-0.009,0.17l-0.309-0.017l0.006-0.091
			c-0.013-0.038-0.023,0.011-0.033,0.09l-0.677-0.035l-0.003-0.008l-0.143-0.025l-0.001,0.025l-0.459-0.023
			c-0.041-0.029-0.08-0.057-0.117-0.104l-0.143-0.025l-0.006,0.115l-1.003-0.052l0.591-0.187l0.016-0.287
			c-0.342-0.061-0.579-0.603-0.816-1.016l0.018-0.289l0.575,0.102c0.019-0.333-0.004-0.327-0.15-0.418
			c-0.704-0.396-0.782,0.271-1.193,1.053c-0.027,0.485-1.696-0.048-1.855-0.622c-0.271-0.047-0.27,0.283-0.465,0.5
			c-0.027,0.531-0.775,0.156-1.021,0.111l-0.032,0.575c0.148,0.026,0.186,0.151,0.271,0.338c0.027-0.513,0.248-0.081,0.447-0.212
			l0.144,0.027c0.021-0.375,0.272-0.021,0.496,0.377l-0.226,0.004l0.002-0.042c-0.062-0.012-0.104,0.009-0.139,0.045h-0.014
			c-0.002-0.009-0.004-0.016-0.006-0.024l-0.002,0.024l-0.816,0.014c0.002-0.067-0.006-0.142-0.029-0.239l-0.291-0.05l0.032,0.293
			l-0.405,0.007c-0.341-0.377-0.771-0.441-1.208-0.582l-0.033,0.579l0.144,0.022l0.018-0.287l0.679,0.274l-0.696,0.012l-0.166,0.015
			c-0.104-0.017-0.214-0.029-0.324-0.032l-0.068-0.372c0.016-0.288-0.03-0.204-0.146-0.024c-0.237-0.044-0.324,0.206-0.462,0.498
			l0.097,0.019l-0.751,0.071c-0.005,0-0.011,0.001-0.017,0.002l-0.475,0.045l-0.612-0.109l-0.448,0.212l-2.285-0.018l-0.017-0.391
			l0.005,0.39l-1.507-0.012c0.01-0.021,0.02-0.032,0.029-0.056l0.286,0.052l0.016-0.29l-1.008-0.179
			c-0.025,0.461-0.276,0.417-0.463,0.501v0.003l-2.418,0.107c-0.176-0.285-0.41-0.408-0.767-0.385l-0.022,0.419l-0.686,0.03
			c-0.041-0.166-0.081-0.318-0.093-0.41c-0.202-0.037-0.327,0.19-0.448,0.434l-0.156,0.007l0.029-0.543l-0.144-0.027
			c-0.024,0.426-0.141,0.422-0.314,0.537c-0.042,0.029-0.092,0.036-0.136,0.059l-1.49,0.065c-0.937-0.243-1.948-0.802-2.698-0.907
			l-2.635,0.242c-0.826-0.019-1.696-0.711-2.34,0.34l-0.288-0.052l0.046-0.863l-0.56-0.391l-0.032,0.577l-0.016,0.286
			c-0.251-0.044-0.259-0.39-0.465-0.554c-0.288-0.216-0.658,0.009-0.951,0.022c-0.002-0.008-0.002-0.008-0.008-0.008l-0.145-0.027
			l0.065,1.465l-0.144-0.027l-0.192-1.776l0.032-0.577l-0.893,0.296c-0.805,0.077-1.719,0.032-2.473,0.008l-1.083-0.392
			c-0.298,0.064-0.567,0.563-0.83,0.899c0.025-0.479-0.129-0.807-0.226-1.203c-0.144-0.028-0.235-0.015-0.302,0.236
			c-0.038,0.666-0.258-0.282-0.417-0.366c-0.458-0.083-0.973-0.227-1.441-0.254l-0.015,0.288c0.818,0.145,1.343,0.772,2.127,0.958
			l-0.03,0.576l-0.145-0.026c-0.033,0.623-0.753-0.096-1.004-0.134c-2.422-0.254-4.965-0.542-7.354-1.121L122,5.237l-0.224,1.413
			l-0.848-0.44c-0.037,0.667-0.262-0.283-0.414-0.366l-1.121-0.615c-0.978,0.354-2.67,1.289-3.487-0.201
			c-0.026,0.462-0.128,0.414-0.32,0.526c-0.018,0.334-0.9-0.078-1.153-0.203l-0.015,0.286l-0.145-0.024
			c-0.058,1.086,1.918,1.893,2.385,1.584c0.598,0.106,3.3,0.522,3.407,1.478c0.599,0.104,1.084,0.056,1.57,0.568l0.142,0.026
			l-0.014,0.288l-7.174-1.762c-1.367-0.416-2.682-0.303-4.026-0.805l-0.016,0.289c-0.244-0.043-0.075,0.514-0.047,0.863
			c-0.262-0.046-0.206-0.734-0.226-1.203c-0.281-0.05-0.521,0.514-0.774,0.69l-1.017,0.154l-0.016,0.29l2,0.646
			c0.014-0.263,0.206,0.206,0.431,0.076l-0.015,0.286c0.193,0.035,0.139,0.127,0.159-0.26c0.625,0.109,1.249,0.185,1.872,0.33
			L112.9,9.438l0.145,0.028l-0.017,0.29c-0.939-0.167-2.36-0.294-3.216,0.302c0.028-0.505-0.201-0.392-0.416-0.365l0.017-0.29
			c0.202,0.036-0.052-0.227-0.128-0.313c0.029-0.513-0.136-0.168-0.289-0.05l-0.287-0.051l-0.018,0.287l0.562,0.389l-0.015,0.289
			l-0.145-0.026c-0.019,0.344-0.197,0.398-0.382,0.409c-0.167-0.081-0.331-0.162-0.496-0.242c-0.02-0.256,0.032-0.627,0.045-0.896
			c-0.215-0.04-0.427,0.331-0.606,0.475c0.02-0.378-0.031-0.295,0.159-0.264c0.021-0.406-0.166-0.884-0.225-1.206
			c0.243,0.045,0.411-0.279,0.606-0.471l0.016-0.288l0.145,0.026l0.015-0.289c-0.791-0.14-1.494,0.189-2.319-0.12l-0.016,0.286
			l-0.144-0.024l-0.016,0.288l1.137,0.493l0.143,0.023l0.016-0.286l0.146,0.024c-0.035,0.629-0.661,0.602-0.91,0.712
			c-0.027,0.449,0.098,0.333,0.271,0.337l-0.022,0.429c-0.081-0.038-0.159-0.074-0.24-0.111c-0.073-0.189-0.111-0.444-0.154-0.681
			l-0.289-0.051l-0.014,0.288c-0.104-0.018-0.165,0.045-0.216,0.133c-0.073-0.033-0.15-0.071-0.223-0.104l0.006-0.105l-0.144-0.027
			c0.021-0.379,0.066-0.279-0.127-0.313c-0.004,0.066-0.075,0.157-0.168,0.254c-2.272-1.007-4.275-1.714-5.599-1.673
			c-0.377,0.011-2.412,0.004-5.205-0.007l0.028-0.515L93.875,6.36c-0.02,0.386,0.036,0.297-0.157,0.262
			c-0.002,0.039-3.089,0.152-7.616,0.297c-6.469-0.018-12.995-0.014-13.751,0.092h4.011l0.585,0.195
			C64.722,7.58,50.289,8.003,50.287,8.082l-0.41-0.025l17.478-2.042L33.498,7.063l-0.851-0.051
			c-2.459-0.086-4.918-0.181-7.374-0.285l-6.931-0.286c-0.038-0.263-0.229-0.182-0.401-0.214c-0.004,0.075,0.001,0.137,0.005,0.199
			l-0.596-0.023l0.031-0.564l-0.288-0.05l-0.016,0.285L16.79,6.023c-0.021,0.387-0.061,0.28,0.128,0.314l-0.003,0.045L9.088,6.297
			c-3.62-0.221-5.662,1.527-7.084,3.369c-1.285,1.662-0.406,5.914-0.895,8.865c-0.27,1.5-0.237,2.982-0.285,4.331l-0.161,4.152
			L0.587,128.091c-0.101,1.352-0.189,3.279,0.098,5c0.263,1.757-0.318,8.49,0.63,10.856c1.324,3.302,0.229,3.599,3.818,4.46
			c1.409,0.337,6.406,0.027,7.833,0.296c0.341,0.07,0.735,0.126,1.136,0.171c0.436,0.048,0.523,0.061,1.002,0.091l1.725,0.128
			l7.374-0.875c4.585,0.445,8.23-0.102,12.894,0.186c1.802,0.12,53.712,0.552,55.202-0.103c1.853,0,7.223,0.725,8.559,0.122
			c1.163,0,2.644,0.112,3.621-0.321c4.117,0,9.092,0.197,12.817-0.103l4.13,0.079c9.199,0,15.866-1.107,24.854-0.707
			c2.138,0.099,6.757,1.102,8.557,0.289l13.824-0.531c7.797,0.49,16.948,0.475,24.962,0.835l17.101-0.67
			c1.522-0.431,5.581,0.081,7.249,0l6.878,0.67c1.573,0,6.308-0.37,7.621-0.893c7.5,0,10.906,1.212,18.156,0.729
			c1.555-0.101,3.578,0.13,4.926-0.461c1.308,0,2.87,0.149,3.95-0.321l2.632-0.322l5.926-0.129c2.542,0.091,6.376,0.653,8.558-0.513
			l7.242-0.29c0.358,0.007,0.787,0.047,1.249,0.092c0.492,0.043,0.882,0.112,1.536,0.124c1.197,0.033,7.757,0.098,8.435-0.41
			c3.393-1.022,3.235-1.586,3.079-7.965c0.326,0.199,1.328-2.269,1.591-2.952C299.505,134.475,298.695,135.785,298.295,136.186z
			 M119.647,5.691c0.256,0.045,0.406,0.31,0.544,0.68L119.647,5.691z M17.206,6.397V6.388l0.053,0.01L17.206,6.397z M28.098,145.169
			l7.527-0.093C33.291,145.349,31.082,145.598,28.098,145.169z M122.338,9.659l-0.289-0.052c0.023-0.413,0.147-0.4,0.319-0.523
			L122.338,9.659z M123.089,9.209c0.265,0.049,0.405,0.318,0.543,0.681L123.089,9.209z M128.398,7.824l-0.016,0.289l-0.143-0.025
			l0.03-0.577l0.017-0.289l0.144,0.026l-0.015,0.291l0.288,0.052C128.677,8.064,128.601,7.86,128.398,7.824z M135.837,7.398
			c-0.253-0.044-0.496,0.693-0.64,1.048c-0.503-0.408-1.119-0.442-1.712-0.593l0.015-0.29l0.147,0.027l0.014-0.286l2.033,0.067
			c0.02-0.375-0.029-0.294,0.16-0.263L135.837,7.398z M136.079,8.313l-0.146-0.027c0.025-0.44,0.146-0.391,0.319-0.524
			c0.021-0.378-0.029-0.295,0.16-0.262c0.029-0.511,0.164-0.097,0.287,0.052C136.677,7.993,136.261,8.111,136.079,8.313z
			 M137.342,9.119l-0.145-0.025l0.065-1.152l0.143,0.025l0.016-0.289l-0.144-0.024l0.016-0.29
			C137.693,7.436,137.415,8.698,137.342,9.119z M138.366,9.009c-0.158-0.028-0.184,0.05-0.304,0.237l-0.194-1.779
			c0.211,0.038,0.39,0.469,0.546,0.678L138.366,9.009z M138.781,9.375c-0.189-0.034-0.139-0.117-0.161,0.263l-0.128-0.315
			c0.194,0.036,0.174-0.014,0.304-0.238L138.781,9.375z M141.063,9.933l-0.562-0.068c-0.292-0.486-1.047-0.835-1.242-1.28
			l0.145,0.026c0.021-0.377-0.028-0.295,0.162-0.263l-0.017,0.287c0.622,0.111,1.108,0.417,1.711,0.595
			C141.248,9.466,141.161,9.708,141.063,9.933z M141.835,9.334c-0.021,0.385,0.036,0.295-0.158,0.262l-0.022,0.407l-0.117-0.013
			l0.155-0.68L141.835,9.334l0.016-0.288l0.291,0.049C142.115,9.573,142.012,9.396,141.835,9.334z M142.557,9.463l-0.288-0.052
			c0.023-0.442,0.144-0.395,0.32-0.524L142.557,9.463z M144.309,9.318l-0.318,0.094c-0.112-0.058-0.09-0.31,0.038-0.27l0.018-0.29
			c0.192,0.033,0.146-0.064,0.126,0.313l0.145,0.025L144.309,9.318z M152.736,8.528l-0.143,0.006
			C152.629,8.469,152.679,8.479,152.736,8.528z M154.188,143.744l-4.671-0.279l11.737-0.344L154.188,143.744z M190.75,8.355
			l0.146,0.028l-0.011,0.206l-0.229,0.011C190.69,8.52,190.727,8.436,190.75,8.355z M189.584,8.441
			c0.069,0.013,0.146,0.095,0.225,0.198l-0.273,0.013L189.584,8.441z M188.847,8.603l-0.013,0.083l-0.098,0.004
			C188.775,8.662,188.815,8.634,188.847,8.603z M186.146,8.813l-0.146-0.025c0,0.008-0.004,0.01-0.004,0.018l-0.692-0.036
			C185.588,8.693,185.869,8.622,186.146,8.813z M183.682,8.666l-0.001,0.019l-0.145-0.007
			C183.583,8.675,183.634,8.667,183.682,8.666z M174.554,8.212l-0.089-0.004c0-0.003-0.005-0.009-0.005-0.012L174.554,8.212z
			 M169.18,7.985l-1.6,0.027l0.009-0.163l0.591-0.185l1.008,0.178L169.18,7.985z M187.968,143.396
			c-6.203-0.473-10.008-0.323-16.343-0.521l-2.128,0.006l5.012-0.6l17.271,0.917L187.968,143.396z M194.463,6.741l0.018-0.292
			l0.288,0.051C194.74,6.978,194.667,6.774,194.463,6.741l-0.017,0.285L194.304,7C194.324,6.623,194.275,6.705,194.463,6.741z
			 M192.22,8.525c0.509-0.323,0.902-0.63,1.028-0.838l0.017-0.289l2.384,0.964L192.22,8.525z M196.309,8.332
			c0.103-0.164,0.34-0.087,0.53-0.025L196.309,8.332z M212.365,6.42l-0.018,0.289c-0.128-0.047-0.235,0.032-0.256-0.226
			C212.188,6.544,212.368,6.438,212.365,6.42z M211.131,5.04l0.591-0.185l-0.605,0.474L211.131,5.04z M207.019,5.765l0.018-0.289
			c0.248,0.045,0.06,0.322-0.033,0.577L207.019,5.765z M205.693,6.11l0.146,0.026l-0.033,0.578l-0.416-0.365
			C205.545,6.376,205.6,6.295,205.693,6.11z M204.683,5.932l-0.015,0.288l-0.111-0.6C204.594,5.625,204.858,5.893,204.683,5.932z
			 M212.519,8.087c-0.125-0.054-0.244-0.096-0.315-0.131L212.19,8.2l-0.083,0.028l-0.063-0.012l-0.002,0.033l-1.404,0.483
			l-8.688-0.668l-1.28,0.061c0.043-0.216,0.109-0.435,0.145-0.554c-0.033,0.622,0.673,0.295,0.865,0.154l0.142,0.028
			c-0.021,0.386-0.06,0.279,0.129,0.312l0.017-0.288l2.031,0.07l1.575,0.08c0.786-0.161,1.187-0.836,1.896,0.247l0.016-0.29
			c0.427,0.075,0.721-0.392,1.167-0.086l0.288,0.053l0.031-0.576l0.83,0.456l1.346-0.288c0.68-0.025,1.261,0.115,1.888-0.028
			l0.016-0.288c0.198,0.035,0.203,0.386,0.224,0.703L212.519,8.087z M214.759,7.318c0.062-0.056,0.121-0.107,0.18-0.151
			c0.024-0.457,0.146-0.169,0.284-0.008L214.759,7.318z M215.583,6.538c0.031-0.584,0.313-0.171,0.412-0.055L215.583,6.538z
			 M221.272,5.673l0.13-0.068C221.364,5.726,221.213,5.916,221.272,5.673z M221.659,11.041c-0.929,0.013-1.019-0.289-1.011-0.535
			l4.037,0.194C223.728,10.898,222.727,11.024,221.659,11.041z M222.093,6.72c0.812-0.204,2.193-0.115,2.602,0.051
			c0.144,0.063,0.248,0.164,0.343,0.285L222.093,6.72z M230.13,8.897l-0.223-0.118l0.459,0.025
			C230.288,8.837,230.208,8.866,230.13,8.897z M233.222,5.176l-0.798,0.121l-0.226-0.012c0.022-0.407,0.198-0.559,0.336-0.815
			l0.721,0.129L233.222,5.176z M265.667,4.332c0.224,0.038,0.146,0.262,0.112,0.601l-0.128-0.314L265.667,4.332z M255.481,7.178
			l0.012,0.111c-0.04-0.002-0.083-0.003-0.123-0.004l-0.035-0.133L255.481,7.178z M250.514,5.331l-0.011,0.187
			c-0.033-0.001-0.065-0.003-0.098-0.003C250.434,5.475,250.459,5.426,250.514,5.331z M248.193,5.21
			c0.504,0.089,0.894,0.046,1.225,0.27c-0.477-0.02-0.964-0.031-1.439-0.053C248.058,5.359,248.131,5.286,248.193,5.21z
			 M239.06,4.755l-0.272-0.338c-0.033,0.61-0.2-0.116-0.271-0.341C238.769,4.12,238.913,4.393,239.06,4.755z M237.925,4.265
			c0.122,0.019,0.263,0.083,0.271,0.335c-0.02,0.388,0.035,0.298-0.16,0.263l-0.016,0.29l-0.144-0.026L237.925,4.265z
			 M262.469,143.735c-3.785,0.361-7.53,0.262-11.51,0.442l-8.229,0.221c-1.796-0.109-3.501-0.198-5.156-0.273l31.538-1.208
			L262.469,143.735z M269.626,3.591c-0.062,0.029-0.124,0.062-0.188,0.094c0.052-0.044,0.116-0.07,0.191-0.128
			C269.628,3.57,269.627,3.578,269.626,3.591z M270.017,4.52l0.033-0.573c0.05,0.009,0.098-0.011,0.146-0.035
			c-0.005,0.186,0.048,0.429,0.097,0.596C270.199,4.51,270.106,4.52,270.017,4.52z M273.778,4.895l-0.691-0.423
			c-0.251-0.044-0.501-0.063-0.75-0.068c0.394-0.02,0.77-0.103,1.136-0.277c-0.027,0.479,0.072,0.306,0.271,0.341
			c0.022-0.405,0.03-0.04,0.159-0.264l0.434,0.078L273.778,4.895z M274.384,4.422l0.017-0.287l0.051-0.01l0.009,0.296
			C274.434,4.424,274.409,4.418,274.384,4.422z M276.417,4.491l-0.145-0.025l-0.017,0.287c-0.483-0.085-0.962-0.292-1.466-0.333
			c0.101-0.103,0.198-0.226,0.282-0.3c-0.027,0.491,0.801-0.001,1.433-0.401C276.455,3.941,276.44,4.235,276.417,4.491z
			 M285.243,4.805l0.124,0.311l-0.139-0.025L285.243,4.805z M285.336,5.392c-0.015,0.001-0.031-0.002-0.046-0.002l0.163-0.056
			l0.058,0.147C285.063,5.95,285.48,5.379,285.336,5.392z M290.067,142.137c-0.14,0.05-0.284,0.075-0.426,0.117
			c0.822-0.262,1.609-0.614,2.354-1.047C291.379,141.578,290.742,141.908,290.067,142.137z M266.295,3.57l-0.005-0.001
			c0.008,0.066,0.016,0.104,0.024,0.165l0.054,0.009L266.295,3.57z M265.712,3.18c-0.056-0.165-0.112-0.321-0.16-0.455
			c-0.009,0.174-0.049,0.324-0.1,0.463C265.497,3.17,265.573,3.167,265.712,3.18z M13.895,4.455l0.43,0.079
			C14.206,4.414,14.021,4.371,13.895,4.455z M109.699,5.491l-0.879,0.135l-0.034,0.578l0.435,0.075L109.699,5.491z M113.938,5.08
			c0.02-0.377-0.029-0.295,0.16-0.261l0.016-0.29l-0.144-0.023c0.019-0.336-1.615-0.887-1.969-1.223
			c-0.022,0.387-0.198,0.619-0.335,0.812l-0.015,0.29l-0.144-0.028l0.015-0.286c0.203,0.035-0.05-0.226-0.127-0.314
			c0.025-0.469-0.069-0.303-0.271-0.337l-0.064,1.15l2.001,0.646L113.938,5.08z M110.914,4.543l0.063-1.149l-0.736,0.159
			C109.895,3.491,110.75,4.469,110.914,4.543z M109.762,4.34l0.017-0.287c0.202,0.035-0.077-0.261-0.129-0.316
			c-0.027,0.478-0.103,0.275-0.302,0.238C109.32,4.459,109.563,4.305,109.762,4.34z M107.746,3.981l-0.417-0.362
			C107.303,4.104,107.547,3.947,107.746,3.981z M131.82,5.049c-0.205-0.035-0.224,0.215-0.318,0.528l0.289,0.049L131.82,5.049z
			 M124.174,3.986c0.204,0.036-0.051-0.226-0.127-0.313c-0.019,0.333,0.026,0.404,0.112,0.602L124.174,3.986z M130.221,5.059
			l-0.496-1.544l-0.289-0.049l-0.19,0.838l-0.015,0.286l0.144,0.027C129.347,5.129,129.984,5.014,130.221,5.059z M126.063,4.029
			c-0.026,0.488,0.217,0.332,0.415,0.365l0.609-0.473c0.027-0.485-0.24-0.453-0.4-0.654c0.553,0.099-0.214-0.329-0.847-0.438
			l-0.018,0.286C126.068,3.159,126.029,3.642,126.063,4.029z M125.215,3.588l-0.016,0.286l0.559,0.392L125.215,3.588z
			 M124.605,4.063l0.289,0.051C124.777,3.766,124.758,4.017,124.605,4.063z M130.766,3.119l-0.545-0.677
			C130.191,2.981,130.547,3.007,130.766,3.119z M158.167,7.345l-0.721-0.126l-0.016,0.287l0.72,0.127L158.167,7.345z M161.063,7.568
			l0.174-0.552l1.024-0.11l1.137,0.493l0.59-0.185l0.016-0.288c-1.269-0.226-2.253-1.554-3.614-0.351l-0.145-0.026l-0.015,0.289
			C160.564,6.895,160.836,7.236,161.063,7.568z M156.485,6.173l0.017-0.287l-0.288-0.053c-0.237-0.042-0.324,0.207-0.462,0.501
			l0.144,0.024L156.485,6.173z M154.76,5.867c0.215,0.038-0.81-0.47-1.137-0.49l-0.031,0.576c0.396,0.071,0.771-0.017,1.151,0.205
			L154.76,5.867z M153.03,5.56c-0.025,0.477,0.073,0.307,0.272,0.34l-0.4-0.65C152.881,5.634,152.841,5.527,153.03,5.56z
			 M152.6,5.486l-0.706-0.416l-0.03,0.576l0.721,0.128L152.6,5.486z M158.086,6.167l-0.016,0.285l1.152,0.205
			C158.91,6.231,158.531,6.281,158.086,6.167z M164.71,7.339l-0.414-0.362C164.268,7.462,164.511,7.305,164.71,7.339z
			 M182.306,7.261l0.031,0.057l0.037-0.044L182.306,7.261z M183.027,7.388c-0.039,0.675,0.755-0.138,0.894-0.424
			c0.192,0.035,0.138,0.125,0.161-0.261l-0.145-0.026l0.031-0.578l-0.432-0.075l-0.032,0.578c-0.021,0.384,0.035,0.296-0.16,0.261
			c0.029-0.512-0.136-0.168-0.288-0.052c-0.261-0.047-0.013-0.564,0.047-0.863l-1.167,0.085l0.048-0.865
			c0.021-0.361-1.577-0.644-1.808,1.132l-0.144-0.025l-0.016,0.289l0.434,0.076l0.045-0.864l0.146,0.027l0.018-0.291l0.285,0.052
			L180.752,6.4l-0.013,0.29l1.902-0.244l-0.018,0.289l0.146,0.025l-0.396,0.513l0.362,0.064L183.027,7.388z M170.803,7.546
			l-0.015,0.29l0.865,0.154l0.206-1.127c-0.19-0.034-0.139-0.114-0.16,0.261c-0.189-0.032-0.268-0.402-0.399-0.651
			c-0.032,0.595-0.145,0.704-0.352,1.102L170.803,7.546z M172.852,7.329l-0.016,0.289l-0.146-0.026l-0.015,0.289l0.863,0.151
			l0.018-0.287L173.14,7.38L172.852,7.329z M168.916,4.888c-0.041,0.736-0.941,1.058-1.232,1.235l-0.018,0.287l-0.142-0.022
			l-0.016,0.286l0.719,0.127c0.314-0.344,0.572-0.727,0.8-1.314l0.144,0.029l0.016-0.291L169.044,5.2
			C169.064,4.822,169.107,4.921,168.916,4.888z M177.635,7.593l-0.032,0.58l1.151,0.202l0.017-0.287
			c0.193,0.034,0.138,0.126,0.159-0.264l-1.006-0.178L177.635,7.593z M163.364,5.357l-0.015,0.289
			C163.347,5.355,163.508,5.383,163.364,5.357z M171.747,6.262l0.449-0.212l0.015-0.288c-0.352-0.063-0.582,0.014-0.88,0.135
			C171.305,6.381,171.549,6.227,171.747,6.262z M168.036,5.022l0.143,0.026c0.685-0.806,1.954-0.337,2.769-0.091l0.014-0.29
			c0.159,0.028,0.214-0.051,0.307-0.235c-0.189-0.035-0.151,0.074-0.13-0.314c-0.189-0.032-0.149,0.073-0.128-0.313
			c-0.888-0.158-2.763-0.099-3.518,0.541c-0.19-0.034-0.142-0.119-0.163,0.262C167.635,4.661,167.829,4.729,168.036,5.022z
			 M174.307,4.68c0.448,0.079,1.366,0.432,1.742,0.015l0.145,0.027l0.016-0.287c-1.391-0.247-2.819-0.294-4.191-0.454
			c-0.021,0.389,0.033,0.299-0.159,0.263l-0.031,0.575c0.503,0.09,0.952,0.045,1.44,0.257L174.307,4.68z M185.68,6.697l0.435,0.076
			c0.053-0.992-1.252-0.651-1.569-0.573l-0.018,0.29l-0.143-0.023l-0.016,0.285l0.574,0.103L185.68,6.697z M177.906,5.317
			c0.027-0.514-0.143-0.163-0.289-0.05l-0.016,0.285l0.145,0.027L177.906,5.317z M176.609,5.087
			c-0.382-0.068,0.346,0.334,0.416,0.365l0.046-0.864c0.197,0.032,0.141,0.126,0.162-0.26l-0.721-0.13l-0.016,0.287
			C176.736,4.529,176.631,4.69,176.609,5.087z M188.016,6.527l0.016-0.286l-0.145-0.026c0.02-0.38,0.068-0.279-0.126-0.312
			c-0.022,0.385,0.032,0.297-0.162,0.261l-0.047,0.864l0.303-0.238C187.877,6.411,187.827,6.494,188.016,6.527z M198.383,2.889
			l-0.146-0.025c-0.027,0.487,0.23,0.714,0.383,0.941L198.383,2.889z M202.38,4.179l-0.544-0.676
			C201.806,4.058,202.155,4.067,202.38,4.179z M194.685,1.362l0.145,0.025c-0.023,0.386-0.06,0.279,0.128,0.313l0.016-0.288
			c0.366,0.064-0.331-0.313-0.415-0.364l-0.032,0.575C194.721,1.659,194.663,1.75,194.685,1.362z M213.435,4.104
			c0.203,0.034-0.051-0.227-0.127-0.315c-0.022,0.36,0.011,0.375,0.111,0.604L213.435,4.104z M195.997,1.305l-0.415-0.366
			C195.555,1.427,195.797,1.268,195.997,1.305z M65.389,4.34l0.256,0.044c-0.042,0.676-0.106,0.488,0.221,0.549l0.028-0.503
			c0.642,0.112-0.579-0.549-0.726-0.638l-0.056,1.006C65.454,4.86,65.353,5.02,65.389,4.34z M67.687,4.241L66.96,3.6
			C66.912,4.453,67.34,4.176,67.687,4.241z M216.953,3.562l0.144,0.028l1.345-0.637c0.025-0.467-0.071-0.3-0.274-0.337
			c0.019-0.324-0.023-0.396-0.109-0.6c-0.014,0.23-0.03,0.53-0.178,0.547l-0.879,0.136c-0.022,0.388-0.042,0.339-0.178,0.551
			C217.019,3.285,216.974,3.185,216.953,3.562z M214.697,2.29l-0.288-0.051c0.032-0.629-0.914,0.258-1.056,0.684l1.328-0.344
			L214.697,2.29z M215.128,2.367l-0.016,0.288c0-0.102,0.012-0.195,0.033-0.286L215.128,2.367z M215.896,1.633
			c-0.263-0.048-0.642,0.235-0.75,0.736l0.129,0.023C215.317,1.594,215.83,2.837,215.896,1.633z M217.593,2.513
			c-0.099-0.279-0.235-0.45-0.399-0.65C217.167,2.329,217.415,2.363,217.593,2.513z M216.887,2.097l0.033-0.573
			c-0.271-0.049-0.575,0.396-0.768,0.733l0.434,0.078L216.887,2.097z M211.753,0.314l-0.016,0.287
			c0.003-0.08,0.038-0.183,0.08-0.275L211.753,0.314z M211.817,0.327l0.224,0.039C212.063-0.023,211.915,0.117,211.817,0.327z
			 M218.74,2.425l-0.017,0.288C218.723,2.421,218.884,2.449,218.74,2.425z M267.377,2.577l-0.559-0.392l0.096,0.889L267.377,2.577z
			 M268.658,3.094l-0.545-0.678C268.086,2.937,268.44,2.993,268.658,3.094z M267.103,4.562l-0.13-0.311l-0.017,0.285L267.103,4.562z
			 M266.829,4.223l0.016-0.277l-0.125-0.301l0.146,0.026l0.015-0.288l-0.718-0.125l0.132,0.311l0.298,0.053
			C266.639,3.869,266.705,4.2,266.829,4.223z M266.989,3.961l-0.144-0.024l-0.001,0.009l0.128,0.305L266.989,3.961z M267.293,3.723
			l-0.144-0.025c-0.028,0.541,0.204,0.736,0.385,0.941l0.318-0.523l0.017-0.291l0.146,0.027l0.017-0.29l-0.722-0.126L267.293,3.723z
			 M282.73,4.266l0.305-0.237l0.032-0.578c-0.189-0.033-0.14-0.113-0.163,0.265l-0.591,0.186
			C282.288,4.388,282.534,4.232,282.73,4.266z"/>
	</g>
</g>
</svg>
