<svg xmlns="http://www.w3.org/2000/svg" xmlns:xlink="http://www.w3.org/1999/xlink" width="1410.213" height="99.545" viewBox="0 0 1410.213 99.545" enable-background="new 0 0 1410.213 99.545"><defs><rect id="a" width="1410.213" height="99.545"/></defs><clipPath id="b"><use xlink:href="#a" overflow="visible"/></clipPath><rect clip-path="url(#b)" fill="#F8974A" width="1410.213" height="99.545"/><polygon clip-path="url(#b)" fill="#F57F20" points="524.678,99.545 500.423,99.545 599.968,0 624.223,0"/><polygon clip-path="url(#b)" fill="#F57F20" points="571.643,99.545 547.388,99.545 646.933,0 671.188,0"/><polygon clip-path="url(#b)" fill="#F57F20" points="476.641,99.545 452.387,99.545 551.932,0 576.186,0"/><polygon clip-path="url(#b)" fill="#F57F20" points="667.997,99.545 643.743,99.545 743.288,0 767.542,0"/><polygon clip-path="url(#b)" fill="#F57F20" points="714.962,99.545 690.708,99.545 790.253,0 814.507,0"/><polygon clip-path="url(#b)" fill="#F57F20" points="619.96,99.545 595.706,99.545 695.252,0 719.506,0"/><polygon clip-path="url(#b)" fill="#F57F20" points="811.316,99.545 787.063,99.545 886.606,0 910.861,0"/><polygon clip-path="url(#b)" fill="#F57F20" points="858.28,99.545 834.026,99.545 933.571,0 957.826,0"/><polygon clip-path="url(#b)" fill="#F57F20" points="763.279,99.545 739.025,99.545 838.57,0 862.825,0"/><polygon clip-path="url(#b)" fill="#F57F20" points="906.317,99.545 882.063,99.545 981.607,0 1005.862,0"/><polygon clip-path="url(#b)" fill="#F57F20" points="429.676,99.545 405.422,99.545 504.967,0 529.221,0"/><polygon clip-path="url(#b)" fill="#F57F20" points="48.037,99.544 23.782,99.544 123.327,0 147.582,0"/><polygon clip-path="url(#b)" fill="#F57F20" points="95.001,99.544 70.747,99.544 170.292,0 194.547,0"/><polygon clip-path="url(#b)" fill="#F57F20" points="0,99.544 -24.254,99.544 75.291,0 99.545,0"/><polygon clip-path="url(#b)" fill="#F57F20" points="191.356,99.544 167.102,99.544 266.647,0 290.901,0"/><polygon clip-path="url(#b)" fill="#F57F20" points="238.321,99.544 214.067,99.544 313.611,0 337.866,0"/><polygon clip-path="url(#b)" fill="#F57F20" points="143.32,99.544 119.065,99.544 218.61,0 242.864,0"/><polygon clip-path="url(#b)" fill="#F57F20" points="334.675,99.545 310.421,99.545 409.966,0 434.221,0"/><polygon clip-path="url(#b)" fill="#F57F20" points="381.64,99.545 357.385,99.545 456.93,0 481.185,0"/><polygon clip-path="url(#b)" fill="#F57F20" points="286.639,99.545 262.384,99.545 361.929,0 386.184,0"/><polygon clip-path="url(#b)" fill="#F57F20" points="-46.965,99.545 -71.219,99.545 28.326,0 52.581,0"/><polygon clip-path="url(#b)" fill="#F57F20" points="1001.318,99.544 977.065,99.544 1076.61,0 1100.864,0"/><polygon clip-path="url(#b)" fill="#F57F20" points="1048.284,99.544 1024.029,99.544 1123.574,0 1147.829,0"/><polygon clip-path="url(#b)" fill="#F57F20" points="953.282,99.544 929.028,99.544 1028.573,0 1052.827,0"/><polygon clip-path="url(#b)" fill="#F57F20" points="1144.639,99.544 1120.385,99.544 1219.93,0 1244.184,0"/><polygon clip-path="url(#b)" fill="#F57F20" points="1191.604,99.544 1167.349,99.544 1266.894,0 1291.147,0"/><polygon clip-path="url(#b)" fill="#F57F20" points="1096.602,99.544 1072.347,99.544 1171.893,0 1196.146,0"/><polygon clip-path="url(#b)" fill="#F57F20" points="1287.957,99.545 1263.703,99.545 1363.248,0 1387.502,0"/><polygon clip-path="url(#b)" fill="#F57F20" points="1334.923,99.545 1310.668,99.545 1410.213,0 1434.468,0"/><polygon clip-path="url(#b)" fill="#F57F20" points="1239.92,99.545 1215.667,99.545 1315.212,0 1339.466,0"/><polygon clip-path="url(#b)" fill="#F57F20" points="1382.96,99.545 1358.704,99.545 1458.249,0 1482.504,0"/></svg>