<?xml version="1.0" encoding="utf-8"?>
<!-- Generator: Adobe Illustrator 15.1.0, SVG Export Plug-In . SVG Version: 6.00 Build 0)  -->
<!DOCTYPE svg PUBLIC "-//W3C//DTD SVG 1.1//EN" "http://www.w3.org/Graphics/SVG/1.1/DTD/svg11.dtd">
<svg version="1.1" id="Layer_1" xmlns="http://www.w3.org/2000/svg" xmlns:xlink="http://www.w3.org/1999/xlink" x="0px" y="0px"
	 width="50px" height="50px" viewBox="0 0 50 50" enable-background="new 0 0 50 50" xml:space="preserve">
<g>
	<g>
		<g>
			<g>
				<g>
					<polygon fill="#8db9e5" points="29.328,47.612 29.257,47.542 29.102,47.763 					"/>
					<path fill="#8db9e5" d="M28.173,48.135c0.037,0.036,0.021,0.099,0.06,0.137c0.233-0.205,0.463-0.413,0.681-0.623
						C28.595,47.33,28.394,48.352,28.173,48.135z"/>
					<path fill="#8db9e5" d="M27.959,48.08c-0.283-0.132-0.394,0.15-0.457,0.245C27.596,48.107,28.027,48.379,27.959,48.08z"/>
					<path fill="#8db9e5" d="M20.608,31.551c0.009,0.022,0.026,0.052,0.043,0.073C20.646,31.58,20.63,31.559,20.608,31.551z"/>
					<path fill="#8db9e5" d="M17.458,27.077l-0.048,0.228c0.285-0.123,0.587-0.187,0.862-0.18c0.28,0.01,0.587,0.082,0.783,0.303
						c0.199,0.215,0.288,0.505,0.324,0.781c0.036,0.268,0.036,0.57,0.059,0.896l-0.074-0.09c-0.031,0.395-0.083,0.798-0.089,1.221
						c-0.017,0.43,0.081,0.871,0.198,1.256c0.247,0.785,0.606,1.465,0.717,2.215l0.228,4.734c-0.024-0.051-0.088-0.068-0.113-0.121
						c0.074,0.157,0.214,0.332,0.193,0.508c-0.05,0.045-0.103-0.051-0.124-0.107c-0.376,0.677,0.198,2.017-0.11,2.437
						c0.031,0.194,0.182,0.287,0.302,0.184c-0.011,1.313-0.18,2.599-0.181,3.898c0,1.229,0.055,2.827,0.631,3.002
						c0.022,0.072-0.017,0.166-0.112,0.27c0.215,0.008,0.397-0.028,0.563-0.059l0.76-0.079c0.524-0.056,1.065-0.106,1.619-0.147
						c0.534-0.041,1.161-0.078,1.741-0.064l1.714,0.044c0.083-0.159-0.233-0.161-0.015-0.328c-0.729-0.181-1.323,0.407-2.007,0.148
						l0.081-0.153c-0.507-0.074-0.071,0.379-0.621,0.218c-0.213-0.109,0.037-0.194-0.059-0.199c-1.031,0.145-2.025,0.088-2.89,0.407
						c-0.1-0.17-0.353-0.194-0.402-0.209c-0.097-0.017-0.219-0.063-0.14-0.227c-0.151,0.049-0.157-0.057-0.366,0.011
						c-0.025-0.12-0.023-0.151-0.046-0.338c-0.018-0.184-0.029-0.38-0.036-0.58c-0.011-0.403-0.004-0.826,0.011-1.255
						c0.033-0.86,0.097-1.743,0.165-2.644c0.171-1.9,0.05-3.71,0.104-5.54c-0.306-0.856-0.261-1.793-0.134-2.753
						c0.066-0.432,0.163-1.084,0.064-1.658c-0.081-0.584-0.271-1.096-0.465-1.536c0.018-0.02,0.042-0.024,0.062-0.018
						c-0.167-0.27-0.33-0.613-0.392-0.949c-0.064-0.315-0.021-0.746,0.048-1.136c-0.072-0.233-0.143-0.473-0.229-0.713
						c0.098-0.649-0.018-1.561-0.652-2.035c-0.618-0.48-1.578-0.438-2.134-0.411c-0.624,0.032-1.251,0.137-1.732,0.137
						c-0.611-0.01-1.207,0.014-1.708-0.055c-0.504-0.066-0.913-0.234-1.294-0.55c-0.292-0.218-0.493-0.672-0.61-1.185
						c-0.224-1.035-0.158-2.22,0.086-3.309c0.126-0.606,0.327-1.255,0.57-1.649c0.228-0.352,0.542-0.512,1.054-0.61
						c0.25-0.046,0.529-0.069,0.826-0.081l0.223-0.007l0.16,0.008l0.42,0.043c0.604,0.073,1.255,0.177,1.959,0.213
						c0.43,0.021,1.012,0.006,1.463-0.144c0.461-0.158,0.858-0.5,1.086-0.934c0.235-0.433,0.308-0.946,0.314-1.455
						c-0.003-0.493-0.048-0.76-0.09-1.106c-0.105-0.685-0.148-1.054-0.087-1.711c0.042-0.614,0.131-1.285,0.145-1.991
						c0.061,0.018,0.101-0.021,0.104,0.127c0.085-0.84,0.127-1.563,0.25-2.252l0.376-2.031l0.059,0.021
						c0.206-1.682,1.16-3.354,2.647-4.246C24.961,2.61,26.704,2.14,28.345,1.6c2.066-0.28,4.323-0.321,6.542,0.057
						c1.088,0.211,2.256,0.453,3.036,1.223c0.79,0.782,0.843,2.015,0.88,3.105l-0.126-0.011c0.046,0.886,0.056,1.793,0.116,2.669
						c0.011,0.849,0.037,1.836-0.532,2.34c-0.553,0.491-1.436,0.261-2.314,0.175c-0.934-0.072-1.773-0.076-2.706,0.01
						c-0.934-0.018-1.98,0.136-2.852,0.755c-0.887,0.612-1.313,1.682-1.386,2.632c-0.086,0.957-0.083,1.947,0.243,2.822
						c0.154,0.429,0.467,0.821,0.92,0.932c0.433,0.123,0.909,0.13,1.366,0.204c1.161,0.404,2.475-0.021,3.775-0.078
						c0.332-0.008,0.657-0.003,1.006,0.074c0.342,0.071,0.681,0.249,0.861,0.548c0.184,0.288,0.249,0.662,0.289,0.937
						c0.04,0.291,0.063,0.566,0.068,0.848c0.096,1.238,0.184,2.426,0.243,3.593c0.027,0.582,0.043,1.159,0.018,1.722
						c-0.012,0.258-0.025,0.444-0.059,0.678c-0.047,0.202-0.051,0.502-0.198,0.633c-0.36,0.047-0.711,0.079-1.164,0.102
						l-1.478,0.046c-0.991,0.029-1.995,0.069-2.974,0.202c-0.436-0.035-0.873-0.035-1.305,0.006
						c-0.387,0.045-0.802,0.105-1.139,0.263c-0.073,0.351-0.121,0.702-0.15,1.049c-0.035,0.39-0.05,0.78-0.05,1.17
						c-0.001,0.78,0.06,1.558,0.124,2.335c0.128,1.549,0.277,3.13,0.018,4.691c0.236,0.949,0.019,1.928-0.174,2.93
						c-0.201,1.006-0.424,2.049-0.347,3.091l0.155-0.076c-0.469,0.755,0.685,1.656-0.012,2.134l-0.033-0.079
						c-0.351,0.401,0.854,0.905,0.436,1.152l0.177,0.062c0.058,0.479-0.199,0.06-0.265,0.431c0.024,0.139,0.322,0.048,0.225,0.34
						c-0.718,0.071,0.169,1.174-0.643,1.213c-0.001-0.262-0.312,0.409-0.484-0.175c-0.082,0.167-0.038,0.964,0.306,0.893
						c0.365,0.068,0.684,0.383,0.964-0.106l-0.266-0.098c0.265-0.165,0.132-0.126,0.331-0.185c0.031-0.64,0.419-0.729,0.574-1.19
						c-0.008,0.005-0.016,0.01-0.029,0.003c-0.323-0.311-0.14-0.746-0.098-0.995l0.147-0.102c0.306-0.156-0.618-0.716-0.083-0.531
						c-0.153-1.296-0.176-2.775-0.177-4.209c-0.205-0.203,0.025-1.099-0.365-0.789c0.448-0.355,0.578-1.412,0.584-1.805
						c0.041,0.017,0.087,0.034,0.068,0.095c0.599-0.729-0.487-0.923,0.223-1.682c-0.485-0.118,0.138-1.399-0.479-1.79
						c0.106-0.098,0.204-0.135,0.293-0.105c-0.071-1.346-0.034-2.785-0.041-3.832c-0.234-0.442-0.189-0.988-0.139-1.5
						c0.024-0.257,0.053-0.506,0.041-0.741c-0.009-0.233-0.051-0.49-0.192-0.55c0.064-0.096,0.15-0.181,0.219-0.246
						c0.105-0.004,0.205,0.01,0.28-0.007c0.042-0.008,0.071-0.02,0.12-0.042c0.118-0.03,0.245-0.07,0.368-0.116l-0.074,0.081
						c0.919-0.127,2.19-0.069,2.941-0.386c0.262,0.6,0.722,0.526,1.172,0.75c0.3-0.083,0.717-0.099,1.193-0.112
						c0.297-0.002,0.766-0.003,1.14-0.026c0.393-0.027,0.776-0.061,1.143-0.103c0.147-0.305,0.226-0.683,0.298-0.988
						c0.154-0.032,0.246-0.388,0.292-0.725c0.056-0.334,0.083-0.644,0.28-0.674c-0.1-1.004-0.282-1.771-0.455-2.654l-0.571-2.592
						c-0.101-0.446-0.234-0.887-0.29-1.248c-0.056-0.297-0.118-1.109-0.513-1.641c-0.193-0.273-0.457-0.489-0.753-0.653
						c-0.148-0.081-0.306-0.151-0.468-0.211l-0.434-0.146c-0.488-0.153-0.988-0.249-1.44-0.317l0.054-0.027
						c-0.483,0.209-0.952,0.706-1.361,1.003c-0.044-0.031-0.042-0.095,0.047-0.098c-0.599,0.106-1.115-0.247-1.671-0.211
						c0.01-0.064,0.009-0.064,0.112-0.12c-0.297,0.07-0.59-0.012-0.857-0.088c-0.276-0.082-0.282-0.12-0.518-0.047l0.037-0.098
						c-0.076,0.014-0.161,0.017-0.242,0c0.097-0.09,0.236-0.228,0.265-0.149c-0.085-0.071-0.136-0.172-0.168-0.273
						c-0.038-0.109-0.089-0.336-0.106-0.584c-0.04-0.5-0.008-1.081,0.079-1.617c0.15-1.057,0.605-1.732,1.613-2.105
						c1.001-0.371,2.32-0.382,3.608-0.424c0.581-0.019,1.236,0.099,2.033,0.025c0.395-0.04,0.87-0.178,1.252-0.49
						c0.19-0.152,0.341-0.338,0.466-0.527c0.098-0.172,0.085-0.145,0.148-0.285c0.05-0.12,0.101-0.254,0.121-0.345
						c0.022,0.083,0.031,0.19,0.026,0.313c0.116-0.538,0.056-0.891,0.005-1.274c0.064,0.008,0.093,0.062,0.119,0.119
						c0.144-0.72,0.036-1.405-0.058-2.029c-0.096-0.576-0.135-1.252-0.111-1.883c0.063,0.006,0.185,0.201,0.256,0.021
						c-0.174-0.479-0.073-0.875-0.044-1.239c0.032-0.356-0.011-0.694-0.434-0.863c0.02-0.057,0.166-0.14,0.252-0.043
						c-0.246-0.76-0.815-1.519-1.499-1.928c-0.674-0.431-1.382-0.634-2.046-0.805c-1.348-0.335-2.697-0.5-4.043-0.585
						c-1.125,0.307-2.277,0.388-3.451,0.553c-1.163,0.168-2.361,0.424-3.345,1.071l-0.035-0.125
						c-1.302,0.732-2.662,1.474-3.623,2.711c-0.974,1.192-1.604,2.7-1.813,4.219c-0.286,1.249-0.093,2.127-0.33,3.349l-0.166,0
						c0.115,1.094-0.396,2.148-0.374,3.335c-0.021,0.58-0.035,1.132-0.112,1.524c-0.04,0.213-0.105,0.434-0.245,0.617
						c-0.137,0.192-0.345,0.288-0.565,0.396c0.023-0.077,0.041-0.151,0.051-0.232c-0.159,0.399-1.155-0.125-1.064,0.461l-0.375-0.21
						c-0.795,0.327-1.444,0.1-2.157,0.057c-0.363-0.029-0.747-0.052-1.145,0.044c-0.391,0.09-0.811,0.337-1.018,0.763
						c-0.011-0.063-0.013-0.12-0.017-0.184c-0.297,0.438-0.393,0.987-0.625,1.295c-0.002-0.061-0.051-0.048-0.048-0.172
						c-0.514,0.661-0.654,1.524-0.642,2.365c0.018,0.85,0.179,1.691,0.336,2.493l-0.292-0.136c0.23,0.375,0.354,0.936,0.703,1.476
						c0.368,0.551,0.95,0.908,1.493,1.021l-0.103,0.095c0.2,0.005,0.392-0.002,0.579-0.029l-0.028,0.245
						c0.729,0.131,1.389,0.034,2.026-0.014C16.211,27.33,16.812,27.14,17.458,27.077z"/>
					<path fill="#8db9e5" d="M20.374,38.72c0.002-0.004,0.002-0.01,0.008-0.014C20.361,38.665,20.363,38.685,20.374,38.72z"/>
					<path fill="#8db9e5" d="M30.409,47.501c-0.013,0.063-0.027,0.113-0.046,0.166C30.411,47.653,30.4,47.555,30.409,47.501z"/>
				</g>
			</g>
		</g>
	</g>
</g>
</svg>
