<?xml version="1.0" encoding="utf-8"?>
<!-- Generator: Adobe Illustrator 15.1.0, SVG Export Plug-In . SVG Version: 6.00 Build 0)  -->
<!DOCTYPE svg PUBLIC "-//W3C//DTD SVG 1.1//EN" "http://www.w3.org/Graphics/SVG/1.1/DTD/svg11.dtd">
<svg version="1.1" id="Layer_1" xmlns="http://www.w3.org/2000/svg" xmlns:xlink="http://www.w3.org/1999/xlink" x="0px" y="0px"
	 width="50px" height="50px" viewBox="0 0 50 50" enable-background="new 0 0 50 50" xml:space="preserve">
<g>
	<g>
		<g>
			<g>
				<g>
					<path fill="#4267B1" d="M22.102,2.177c0.056,0.076,0.105,0.154,0.148,0.235c0.02,0.036,0.072,0.146,0.057,0.124
						c-0.015-0.015-0.01-0.033-0.014-0.05l-0.007-0.109l-0.02,0.078C22.323,2.553,22.19,2.284,22.102,2.177z"/>
					<path fill="#4267B1" d="M23.128,1.901c-0.042-0.033-0.028-0.097-0.073-0.132c-0.253,0.22-0.494,0.456-0.618,0.693
						C22.722,2.737,22.854,1.699,23.128,1.901z"/>
					<path fill="#4267B1" d="M23.374,1.945c0.326,0.122,0.454-0.158,0.531-0.253C23.793,1.906,23.287,1.646,23.374,1.945z"/>
					<path fill="#4267B1" d="M32.682,21.947c-0.035,0.006-0.061,0.017-0.111,0.032C32.645,21.979,32.661,21.968,32.682,21.947z"/>
					<path fill="#4267B1" d="M40.575,20.785l0.089-0.221c-1.5,0.359-3.181-0.045-4.761,0.176l0.105-0.082
						c-1.004,0.009-1.989,0.064-2.961,0.177c-0.519,0.061-0.904,0.122-1.323,0.212c-0.415,0.098-0.87,0.185-1.276,0.446
						c-0.097,0.064-0.183,0.187-0.138,0.304c0.015,0.045,0.053,0.134,0.104,0.092c0.038-0.033,0.049-0.085,0.063-0.132
						c0.051-0.194,0.063-0.404,0.077-0.617c0.024-0.428,0.03-0.882,0.032-1.364l-0.036-2.936c0.023,0.062,0.087,0.083,0.11,0.149
						c-0.071-0.193-0.208-0.409-0.185-0.623c0.051-0.055,0.103,0.062,0.123,0.132c0.389-0.832-0.194-2.461,0.09-2.981
						c-0.037-0.236-0.191-0.34-0.308-0.21c-0.089-3.092-0.189-6.427-0.677-9.523c0.039-0.152,0.137-0.186,0.266-0.155l-0.273-0.974
						c-0.082-0.299-0.178-0.677-0.254-0.816l-0.005-0.009c-0.017-0.001,0.107-0.031,0.152-0.051
						c0.125-0.043,0.256-0.118,0.358-0.177c0.073-0.016,0.154-0.107,0.18-0.136c0.012-0.007,0.02-0.022,0.018-0.041
						c-0.041,1.686-0.013,0.467-0.022,0.844h-0.002h-0.004l-0.008,0l-0.017,0.001c-0.07,0.005-0.232,0.001-0.306,0l-0.536-0.021
						l-1.038-0.078c-1.373-0.122-2.744-0.315-4.074-0.361c-0.1,0.158,0.269,0.166,0.011,0.328c0.831,0.195,1.579-0.345,2.354-0.006
						l-0.112,0.143c0.564,0.138,0.144-0.373,0.726-0.132c0.226,0.144-0.073,0.186,0.034,0.207c0.614,0.018,1.237,0.096,1.866,0.136
						c0.332,0.02,0.593,0.032,1.016,0.014l0.058-0.006l0.015-0.001l0.007-0.001l0.004,0h0.002l0,0
						c-0.005,0.231,0.049-2.02,0.026-1.066c0.002,0.016-0.004,0.03-0.014,0.038c-0.05,0.08-0.196,0.153-0.434,0.272
						c-0.122,0.06-0.195,0.061-0.367,0.135c-0.11,0.042-0.083,0.033-0.082,0.034l0.006,0.003c0.009-0.003,0.021,0.021,0.034,0.041
						c0.052,0.077,0.112,0.205,0.177,0.324c-0.281,0.287,0.125,1.261-0.162,1.739c0.149,0.305,0.134,0.625,0.356,0.735
						c0.026,4.314,0.361,8.776,0.204,13.211c0.07,0.262,0.117,0.53,0.146,0.803c0.026,0.298,0.042,0.487,0.026,0.915
						c-0.006,0.188-0.019,0.379-0.034,0.572l-0.031,0.295c0.018,0.079-0.114,0.26,0.114,0.196c0.145-0.008,0.324-0.034,0.447-0.03
						l-0.021,0.221l-0.054,0.444c-0.021,0.148-0.044,0.297-0.081,0.444c-0.018,0.073-0.04,0.146-0.075,0.214
						c-0.033,0.098-0.138,0.05-0.158-0.029c-0.08-0.154,0.069-0.294,0.196-0.359c0.134-0.075,0.28-0.127,0.428-0.17
						c0.147-0.045,0.299-0.08,0.45-0.112c0.133,0.027,0.372-0.287,0.307,0.411c0.007,0.105-0.012,0.268,0.016,0.324l0.172-0.036
						c0.114-0.023,0.229-0.052,0.341-0.068l0.625-0.11c0.019,0.02,0.019,0.045,0.004,0.064c0.761-0.243,1.927-0.39,2.885-0.345
						l0.805-0.292c2.894,0.213,5.816,0.311,8.719,0.553c0.723,0.063,1.445,0.141,2.144,0.255c0.344,0.058,0.694,0.126,0.982,0.219
						c0.072,0.022,0.134,0.047,0.186,0.069c0.061-0.013,0.004,0.165,0.212-0.236c0.052-0.075,0.108-0.078,0.149-0.071l0.035,0h0.018
						h0.009c-0.218,0.071,0.499-0.16-0.486,0.16l0.007,0.02l0.025,0.083c0.018,0.063,0.033,0.134,0.047,0.21
						c0.191,1.296,0.087,2.821-0.041,4.254c-0.044,0.539-0.11,1.223-0.142,1.392l-0.039,0.278c-0.049,0.083-0.169,0.087-0.256,0.109
						c-0.094,0.019-0.187,0.029-0.277,0.039l-0.374,0.038c-0.706,0.073-1.426,0.12-2.141,0.163l-4.273,0.227
						c-1.421,0.081-2.841,0.18-4.277,0.32c-0.718,0.07-1.439,0.151-2.168,0.245l-2.404,0.331c-0.012-0.063-0.101-0.093,0.125-0.128
						c-0.558,0.049-1.098,0.074-1.63,0.098l0.038,1.456l0.006,1.275c0,0.69,0.009,1.375,0.069,2.069l-0.063-0.006
						c0.286,2.192,0.26,4.484,0.156,6.742c-0.054,1.129-0.127,2.249-0.209,3.345c-0.092,1.079-0.159,2.204-0.381,3.134
						c-0.116,0.246-0.275,0.536-0.58,0.578c-0.271,0.076-0.559,0.119-0.895,0.157c-0.647,0.069-1.316,0.085-1.99,0.084
						c-0.676-0.003-1.359-0.025-2.046-0.061c-0.672-0.033-1.424-0.085-1.998-0.132l-0.462-0.039l-0.232-0.021
						c-0.076-0.009-0.181,0.007-0.147-0.099l0-0.926l-0.003-2.057l-0.036-4.16l0.126,0.016c-0.086-1.929,0.008-3.826,0.129-5.719
						l0.183-2.839l0.072-1.49l0.043-1.776c-0.649,0.001-1.31,0.011-1.952,0.034c-4.558-0.298-9.263,0.7-13.81,0.308
						c-1.421-0.312-2.989-0.139-4.632,0.031c-0.304,0.114-0.22-0.201-0.283-0.361L1.521,28.89c-0.066-0.422-0.121-0.837-0.156-1.2
						c-0.072-0.758-0.075-1.485,0.056-2.151c0.184-1.361,0.281-2.708,0.406-4.014c0.034-0.323,0.069-0.648,0.125-0.944
						c0.026-0.145,0.066-0.292,0.101-0.369l0.009-0.016c0.021,0.024-0.071-0.002-0.129-0.052c-0.044-0.052-0.007-0.094-0.108-0.155
						c0.066,0.073,0.049,0.107,0.117,0.238c0.026,0.103,0.082,0.013,0.149,0.029c0.577-0.054,1.268-0.033,1.918-0.031
						c2.648,0.038,5.335,0.005,8.055-0.034c2.468,0.4,4.967,0.519,7.431,0.589c0.654,0.013,1.041,0.023,1.538-0.018
						c0.059-0.006,0.118-0.016,0.173-0.037c0.057-0.027,0.062-0.1,0.075-0.155c0.019-0.119,0.023-0.239,0.029-0.358l0.011-0.711
						c-0.001-1.16,0.007-2.418,0.119-3.622c-0.572-2.262,0.276-4.846,0.048-7.379l-0.152,0.098c0.435-0.926-0.729-2.021-0.032-2.606
						l0.033,0.096c0.349-0.482-0.848-1.121-0.42-1.418L20.74,4.59c-0.04-0.593,0.201-0.067,0.281-0.52
						c-0.016-0.171-0.32-0.075-0.204-0.431c0.704-0.026-0.048-1.485,0.788-1.394c-0.05,0.279,0.384-0.376,0.446,0.271
						c0.052-0.083,0.106-0.342,0.113-0.5c0-0.027,0-0.075-0.013-0.081c-0.011-0.008,0.014,0.001-0.103-0.07
						c-0.067-0.032-0.125-0.072-0.173-0.114c-0.099-0.09-0.117-0.097-0.144-0.142L21.72,1.59l-0.001-0.002l0-0.001l0,0l0.202,0.311
						l-0.002-0.007l-0.005-0.013l-0.016-0.025l-0.01-0.012l-0.006-0.006l-0.003-0.003l-0.001-0.001l-0.159-0.244l0.157,0.242V1.827
						l-0.001-0.002l-0.001-0.004L21.87,1.813l-0.005-0.017l-0.01-0.034l-0.016-0.069l-0.024-0.14
						C21.8,1.46,21.787,1.37,21.756,1.294s-0.077-0.138-0.157-0.176c-0.086-0.013-0.159-0.125-0.45,0.099
						c0.024,0.114,0.079,0.204,0.137,0.286c-0.338,0.113-0.193,0.12-0.408,0.135c-0.25,0.865-0.587,0.904-0.812,1.503
						c0.008-0.006,0.017-0.012,0.03-0.002c0.289,0.425,0.084,0.954,0.033,1.268l-0.15,0.122c-0.314,0.19,0.601,0.91,0.069,0.667
						c0.133,1.617,0.197,3.442,0.29,5.22c0.213,0.24,0.05,1.361,0.418,0.953c-0.42,0.467-0.459,1.793-0.415,2.283
						c-0.043-0.017-0.091-0.034-0.079-0.112c-0.521,0.981,0.595,1.096-0.059,2.022c0.504,0.113-0.07,1.618,0.534,2.089
						c-0.106,0.113-0.204,0.155-0.294,0.118c0.015,0.396,0.019,0.803,0.012,1.207l-0.007,0.302l-0.005,0.146l-0.008,0.041
						l-0.036,0.143c-0.038,0.069-0.025,0.187-0.142,0.158l-0.217-0.042c-0.006,0.027-0.022,0.05-0.051,0.067
						c-0.028,0.018-0.036,0.034-0.133,0.042c-0.154,0.017-0.314,0.021-0.477,0.016c-0.326-0.01-0.665-0.054-1-0.094
						c-0.67-0.08-1.323-0.144-1.844,0.112c-0.809-0.198-2.112-0.572-3.283-0.439l0.119-0.063c-1.298-0.087-2.922-0.208-3.846,0.088
						c-0.333-0.609-0.905-0.544-1.452-0.777c-0.893,0.191-2.645-0.037-4.01,0.139c-0.194-0.28-1.126,0.07-1.201-0.312l-0.809,0.152
						c-0.162,0.04-0.286,0.048-0.639,0.182l-0.065,0.028l-0.127,0.069c-0.103,0.07-0.134,0.077-0.275,0.221l-0.036,0.049
						c-0.05,0.062-0.097,0.127-0.137,0.196c-0.104,0.194-0.126,0.292-0.156,0.401c-0.146,0.75-0.086,1.208-0.089,1.764l0.086,3.18
						c0.017,1.064,0.012,2.135-0.012,3.192l-0.009,0.399l0.005,0.634l0.018,1.31l0.009,0.679c-0.022,0.082,0.063,0.049,0.105,0.063
						l0.152,0.013l0.306,0.025l1.264,0.109l-0.112,0.026c0.492-0.104,1.039-0.27,1.234-0.447c0.279-0.177,0.558-0.362,0.82-0.498
						c0.052,0.033,0.045,0.098-0.064,0.096c0.725-0.071,1.4,0.31,2.125,0.241c-0.007,0.064-0.007,0.064-0.124,0.124
						c0.679-0.17,1.402,0.312,2.204,0.015l0.044,0.102l0.51-0.142c-0.012,0.127-0.032,0.319-0.304,0.277
						c2.147,0.048,4.318,0.002,6.504-0.074l3.288-0.129l1.618-0.067l0.921-0.062l0.034,0.817l0.01,1.384
						c0,0.987-0.012,1.976-0.043,2.963l-0.117-0.235L21.2,36.8c-0.064-0.008-0.095-0.066-0.123-0.126
						c-0.242,1.572,0.094,3.215,0.015,4.75c-0.063-0.008-0.182-0.242-0.256-0.028c0.33,1.143-0.481,1.819,0.232,2.4
						c-0.035,0.052-0.198,0.086-0.254-0.03c0.047,0.792,0.079,1.589,0.097,2.389l0.017,1.3l0,1.663l0,0.104
						c-0.009,0.043,0.001,0.067,0.048,0.061l0.207,0.022l0.414,0.044l0.827,0.086l1.401,0.129c0.809,0.069,1.619,0.133,2.433,0.176
						c0.682-0.154,1.376-0.246,2.088-0.346c0.373-0.055,0.68-0.096,1.125-0.196c0.211-0.053,0.422-0.107,0.612-0.205
						c0.19-0.104,0.328-0.281,0.441-0.465c0.44-0.822,0.521-1.503,0.633-2.23c0.088-0.717,0.104-1.431,0.035-2.131l0.128,0.024
						c-0.166-3.602,0.311-7.371,0.154-11.084c0.012-1.024-0.053-1.584-0.124-2.392c0.401-0.044,0.86-0.079,1.392-0.103l0.051,0.16
						c2.541-0.715,5.481,0.332,8.151-0.508l-0.175,0.231c0.4-0.365,1.648,0.02,1.45-0.556l0.49,0.146
						c0.893-0.449,1.73-0.423,2.628-0.38c0.882,0.037,1.886,0.112,2.914-0.343c-0.022,0.054-0.049,0.106-0.079,0.159
						c0.234-0.098,0.476-0.178,0.683-0.312c0.131-0.063,0.079-0.23,0.099-0.339c0.009-0.118,0.022-0.228,0.044-0.328
						c0.017-0.083,0.038-0.158,0.065-0.228c0.015,0.076,0.058,0.054,0.081,0.219c0.681-1.909,0.265-4.012,0.045-6.003l0.29,0.194
						c-0.121-0.248-0.159-0.516-0.362-0.882c-0.22-0.226-0.362-0.232-0.544-0.313c-0.173-0.061-0.349-0.108-0.527-0.155
						c-0.712-0.177-1.465-0.305-2.103-0.305l0.09-0.112l-0.655,0.106l0.006-0.247C43.735,20.653,42.177,20.795,40.575,20.785z"/>
					<path fill="#4267B1" d="M30.6,16.5c-0.003,0.004-0.003,0.012-0.009,0.017C30.611,16.567,30.61,16.543,30.6,16.5z"/>
					<path fill="#4267B1" d="M20.005,3.351c0.019-0.08,0.038-0.144,0.062-0.209C20.017,3.154,20.019,3.283,20.005,3.351z"/>
				</g>
			</g>
		</g>
	</g>
</g>
</svg>
