<?xml version="1.0" encoding="utf-8"?>
<!-- Generator: Adobe Illustrator 15.1.0, SVG Export Plug-In . SVG Version: 6.00 Build 0)  -->
<!DOCTYPE svg PUBLIC "-//W3C//DTD SVG 1.1//EN" "http://www.w3.org/Graphics/SVG/1.1/DTD/svg11.dtd">
<svg version="1.1" id="Layer_1" xmlns="http://www.w3.org/2000/svg" xmlns:xlink="http://www.w3.org/1999/xlink" x="0px" y="0px"
	 width="50px" height="50px" viewBox="0 0 50 50" enable-background="new 0 0 50 50" xml:space="preserve">
<g>
	<g>
		<g>
			<g>
				<g>
					<polygon fill="#8db9e5" points="19.93,11.471 19.897,11.344 19.53,11.313 					"/>
					<path fill="#8db9e5" d="M17.504,12.821c-0.065-0.096,0.011-0.116-0.055-0.229c-0.132-0.068-0.368-0.298-0.417-0.673
						l-0.063-0.481l0.903-0.379c0.42-0.176,0.988-0.157,1.42-0.063c-0.138-0.232-0.443-0.313-0.712-0.283
						c-0.283,0.029-0.524,0.168-0.709,0.267l-0.997,0.531l0.078,0.41c0.026,0.136,0.072,0.27,0.13,0.383
						c0.054,0.091,0.111,0.162,0.171,0.236C17.362,12.662,17.442,12.731,17.504,12.821z"/>
					<path fill="#8db9e5" d="M17.909,13.107c0.436,0.311,0.651,0.05,0.766-0.013C18.499,13.292,17.935,12.809,17.909,13.107z"/>
					<path fill="#8db9e5" d="M43.691,21.67c0.004-0.025,0.004-0.059,0.002-0.085C43.675,21.624,43.677,21.651,43.691,21.67z"/>
					<path fill="#8db9e5" d="M37.311,25.38l-0.054,0.233c1.48-0.627,3.266-0.6,4.81-1.309l-0.081,0.112
						c0.99-0.325,2.053-0.896,2.536-1.94c0.472-1.035,0.294-2.139,0.021-3.094c-0.534-1.932-1.648-3.772-3.393-4.798
						c0.064,0.015,0.118-0.027,0.188-0.011c-0.205-0.054-0.459-0.043-0.638-0.16c-0.025-0.07,0.103-0.062,0.176-0.045
						c-0.273-0.388-0.91-0.593-1.494-0.685c-0.583-0.118-1.129-0.038-1.393-0.21c-0.247,0.021-0.362,0.17-0.235,0.293
						c-3.201-0.077-6.66-0.025-9.958,0.154c-0.157-0.055-0.183-0.155-0.136-0.281c-1.415,0.254-2.863,0.292-4.321,0.211
						c-1.464-0.089-2.912-0.254-4.417-0.578c-0.15,0.132,0.287,0.225-0.052,0.324c0.983,0.381,1.819-0.13,2.645,0.23l-0.123,0.14
						c0.613,0.147,0.157-0.367,0.783-0.125c0.244,0.143-0.077,0.187,0.04,0.207c1.319,0.03,2.674,0.227,3.914-0.094
						c0.292,0.34,1.397,0.061,1.868,0.386c0.34-0.119,0.676-0.077,0.81-0.29c2.269,0.149,4.564,0.153,6.857,0.172l1.713,0.028
						c0.55,0.021,1.169,0.032,1.568,0.123c1.002,0.223,1.937,0.68,2.655,1.398c0.922,0.43,1.533,1.464,1.841,2.583
						c0.305,1.132,0.478,2.393,0.313,3.334c-0.024,0.007-0.048-0.002-0.062-0.02c-0.01,0.316-0.133,0.691-0.431,1.004
						c-0.29,0.317-0.729,0.563-1.165,0.704c-0.203,0.184-0.427,0.36-0.661,0.528c-2.928,0.608-5.88,0.974-8.903,1.003
						c-1.517,0.01-3.018,0.003-4.488-0.222c-1.491-0.213-2.998-0.543-4.556-0.787c-0.444-0.063-0.889-0.118-1.338-0.154
						c-0.456-0.033-0.837-0.075-1.539-0.041c-0.315,0.008-0.631,0.024-0.948,0.051c-0.154,0.017-0.327,0.012-0.467,0.047
						l-0.126,0.449l-0.239,0.906c-0.07,0.298-0.144,0.663-0.176,0.835c-0.314,1.721-0.412,3.458-0.123,5.215
						c0.149,0.875,0.401,1.761,0.853,2.601c0.438,0.832,1.132,1.635,1.99,2.135c1.694,0.97,3.48,1.114,5.219,1.11
						c-0.016,0.062,0.037,0.101-0.146,0.107c2.01,0.084,3.814,0.293,5.664,0.145l-0.006,0.063c2.277-0.271,4.667-0.32,6.894,0.195
						c2.232,0.489,4.152,1.725,5.323,3.543c0.558,1.169,0.727,2.578,0.312,3.872c-0.201,0.634-0.543,1.279-0.984,1.76
						c-0.464,0.476-1.113,0.771-1.786,0.969c-2.754,0.744-5.776,0.32-8.596,0.699l0.005-0.127c-4.524,0.56-8.981,0.354-13.3-0.671
						c-2.162-0.744-4.36-1.591-6.348-2.936c-1.982-1.325-3.701-3.162-4.708-5.302c-0.456-1.405-1.261-2.841-1.891-4.401
						c-0.633-1.547-1.084-3.175-0.946-4.575c0.11-2.842,0.073-5.596-0.348-8.364c-0.198-1.399-0.592-2.708-0.672-4.087
						c-0.118-1.379-0.08-2.795-0.035-4.208c0.261-1.274,0.432-2.549,0.462-3.84C5.54,8.604,5.59,7.287,5.95,5.996
						c0.345-1.288,1.105-2.516,2.173-3.337c1.021-0.832,2.412-1.357,3.705-1.151c1.245-0.231,2.546,0.398,3.489,1.266
						c0.958,0.889,1.755,1.922,2.298,3.019l0.104-0.147c-0.021,0.507,0.268,0.914,0.494,1.368c0.22,0.444,0.356,0.901,0.014,1.204
						l-0.034-0.098c-0.334,0.474,0.833,1.179,0.386,1.477l0.169,0.095c0,0.621-0.205,0.058-0.316,0.522
						c0.004,0.179,0.314,0.1,0.174,0.459c-0.723,0.003-0.014,1.499-0.82,1.457c0.036-0.336-0.368,0.495-0.457-0.28
						c-0.112,0.2-0.162,1.265,0.192,1.193c0.359,0.113,0.648,0.527,0.973-0.066l-0.255-0.143c0.282-0.184,0.146-0.146,0.351-0.201
						c0.112-0.792,0.515-0.854,0.739-1.416c-0.008,0.005-0.017,0.011-0.03,0c-0.27-0.433-0.023-0.97,0.048-1.296l0.158-0.12
						c0.329-0.185-0.551-1.006-0.032-0.721c-0.033-0.882-0.1-1.87-0.389-2.881C18.798,5.19,18.23,4.185,17.487,3.44
						c-0.321-0.078-1.115-1.055-1.041-0.474c-0.042-0.325-0.347-0.751-0.742-1.1c-0.392-0.352-0.868-0.619-1.142-0.727
						c0.037-0.029,0.079-0.062,0.157-0.009c-0.411-0.501-0.821-0.492-1.174-0.469c-0.369,0.024-0.675,0.053-1.213-0.35
						c-0.112,0.242-0.612,0.159-1.192,0.198c-0.577,0.025-1.217,0.207-1.398,0.592C9.579,1.047,9.494,0.974,9.51,0.874
						C8.54,1.271,7.709,1.808,6.944,2.487c-0.758,0.679-1.35,1.521-1.695,2.292c-0.201,1.452-1.048,3.21-0.52,4.34
						c-0.188,0.917-0.494,2.167-0.419,3.366l-0.06-0.123c-0.131,1.308-0.348,3.035-0.038,4.025
						c-0.604,0.369-0.534,0.996-0.715,1.625c0.127,0.488,0.198,1.225,0.344,2.021c0.148,0.783,0.296,1.494,0.49,2.171
						c-0.24,0.235,0.231,1.103-0.148,1.211c1.125,3.742,0.986,8.555,1.87,12.882l-0.046-0.052c0.38,0.475,1.045,0.916,1.517,1.314
						c-0.009,0.064-0.071,0.083-0.115-0.024c0.365,0.676,0.343,1.497,0.796,2.149c-0.06,0.024-0.06,0.025-0.174-0.057
						c0.506,0.55,0.517,1.478,1.274,2.021l-0.054,0.098l0.445,0.36c-0.109,0.067-0.276,0.168-0.419-0.099
						c1.97,2.802,4.944,4.973,8.217,6.108c3.276,1.176,6.763,1.383,10.112,1.328l-0.243,0.127l1.295-0.259
						c-0.005,0.065-0.064,0.099-0.126,0.131c1.669,0.147,3.346-0.352,4.934-0.393c-0.003,0.063-0.235,0.199-0.009,0.257
						c1.16-0.416,1.884,0.35,2.438-0.374c0.055,0.033,0.093,0.195-0.024,0.255c1.617-0.131,3.329-0.121,5.065-0.396
						c0.867-0.148,1.763-0.349,2.616-0.846c0.419-0.248,0.836-0.591,1.135-1.013c0.276-0.375,0.517-0.782,0.707-1.214
						c0.299-1.568,0.217-3.185-0.416-4.636c-0.612-1.44-1.798-2.668-3.214-3.154l0.077-0.106c-1.79-0.74-3.687-1.047-5.618-1.224
						c-1.932-0.165-3.888-0.191-5.803-0.151c-1.589-0.065-2.668,0.064-4.257-0.115l-0.02-0.166c-1.352,0.135-2.792-0.302-3.92-1.107
						c-1.14-0.809-1.669-2.027-2.35-3.265l0.265,0.123c-0.477-0.317-0.212-1.633-0.759-1.39l0.122-0.514
						c-0.472-0.921-0.368-1.841-0.165-2.749l0.342-1.41c0.055-0.237,0.102-0.477,0.145-0.744l0.061-0.427
						c-0.014-0.104,0.074-0.09,0.133-0.114l0.193-0.061c-0.026,0.049-0.046,0.099-0.063,0.148c0.508-0.177,1.312-0.257,1.752-0.106
						c-0.073,0.017-0.042,0.059-0.191,0.089c1.88,0.612,4.069,0.472,6.124,0.791l-0.27,0.223c1.027-0.121,2.848,0.279,4.169,0.13
						l-0.081,0.121l0.665-0.172l0.021,0.246C34.061,25.978,35.665,25.655,37.311,25.38z"/>
					<path fill="#8db9e5" d="M40.875,14.369c0.002,0.004,0.009,0.008,0.011,0.015C40.94,14.391,40.918,14.38,40.875,14.369z"/>
					<path fill="#8db9e5" d="M19.399,11.01c-0.022,0.078-0.045,0.142-0.072,0.205C19.377,11.205,19.381,11.077,19.399,11.01z"/>
				</g>
			</g>
		</g>
	</g>
</g>
</svg>
