<svg xmlns="http://www.w3.org/2000/svg" width="216" height="432" viewBox="0 0 216 432"><path stroke="#66b3ff" stroke-miterlimit="10" d="M44.308 177.231v-19.385h-16.616v19.385c0 2.693-19.385 19.419-19.385 27.692 0 8.308 11.077 8.308 11.077 8.308h33.23s11.077 0 11.077-8.308c.001-8.273-19.383-24.999-19.383-27.692z" fill="none"/><rect x="22.154" y="155.077" fill="#66b3ff" width="27.692" height="5.538"/><path fill="#66b3ff" d="M52.929 188.308h-26.102s-18.173 24.923-7.962 24.923h35.729c18.961 0-1.665-24.923-1.665-24.923zm-8.621 19.679c-3.224 0-5.836-2.61-5.836-5.833s2.612-5.833 5.836-5.833 5.836 2.609 5.836 5.833-2.613 5.833-5.836 5.833zm-12.567-8.348c-2.377 0-4.303-1.925-4.303-4.302s1.926-4.303 4.303-4.303 4.303 1.925 4.303 4.303c-.001 2.376-1.926 4.302-4.303 4.302z"/><circle fill="#66b3ff" cx="40.154" cy="148.154" r="3.973"/><circle fill="#66b3ff" cx="34.796" cy="170.308" r="3.973"/><path fill="#66b3ff" d="M63.692 11.077h-55.384c-4.587 0-8.308 3.721-8.308 8.308v33.23c0 4.587 3.721 8.308 8.308 8.308h55.385c4.586 0 8.308-3.721 8.308-8.308v-33.23c-.001-4.587-3.722-8.308-8.309-8.308zm-15.317 24.61l17.74 18.162-21.64-15.458-8.475 5.522-8.481-5.522-21.637 15.458 17.743-18.162-21.454-16.724 33.829 18.243 33.826-18.243-21.451 16.724z"/><path fill="#66b3ff" d="M58.154 365.539h-.508c-1.147-3.219-4.187-5.539-7.8-5.539h-33.231c-4.586 0-8.308 3.721-8.308 8.308v52.616c0 5.165 9.828 11.077 13.846 11.077h36c4.581 0 8.308-3.727 8.308-8.308v-49.846c0-4.582-3.726-8.308-8.307-8.308zm-36 6.75c0-6.642 5.539-6.75 5.539-6.75h19.385s-5.539.06-5.539 6.75v29.25l-9.692-6.75-9.692 6.75c-.001-.001-.001-24.753-.001-29.25zm38.769 51.403c0 1.528-1.244 2.77-2.769 2.77h-36c-1.022-.011-3.483-1.345-5.474-2.77h33.166c4.586 0 8.308-3.722 8.308-8.308v-44.308c1.525 0 2.769 1.241 2.769 2.769v49.847z"/><path fill="#66b3ff" d="M36 80.827c14.982 0 27.173 12.19 27.173 27.172 0 14.982-12.19 27.173-27.173 27.173-14.982 0-27.172-12.19-27.172-27.173 0-14.981 12.19-27.172 27.172-27.172m0-8.307c-19.595 0-35.48 15.884-35.48 35.48 0 19.596 15.885 35.48 35.48 35.48 19.596 0 35.48-15.885 35.48-35.48 0-19.596-15.884-35.48-35.48-35.48z"/><circle fill="#66b3ff" cx="60.923" cy="108" r="3.675"/><circle fill="#66b3ff" cx="11.077" cy="108" r="3.675"/><circle fill="#66b3ff" cx="36" cy="132.923" r="3.675"/><circle fill="#66b3ff" cx="36" cy="83.077" r="3.675"/><path fill="#66b3ff" d="M31.527 103.521l-10.211 19.163 19.163-10.208 10.209-19.164-19.161 10.209zm4.473 7.962c-1.925 0-3.483-1.558-3.483-3.483s1.558-3.483 3.483-3.483c1.926 0 3.483 1.558 3.483 3.483s-1.557 3.483-3.483 3.483z"/><polyline stroke="#66b3ff" stroke-miterlimit="10" points="3.483,257.517 36,225 68.604,257.604" fill="none"/><path fill="#66b3ff" d="M52.615 241.615v-17.264c0-1.525 1.241-2.77 2.77-2.77h2.769c1.525 0 2.769 1.244 2.769 2.77v25.572l-8.308-8.308z"/><path fill="#66b3ff" d="M36 234l-30.461 30.461v15.231c0 4.586 3.721 8.308 8.308 8.308h44.308c4.586 0 8.308-3.721 8.308-8.308v-15.231l-30.463-30.461zm8.308 45.692c0 1.525-1.244 2.769-2.769 2.769h-11.078c-1.525 0-2.769-1.244-2.769-2.769v-16.615c0-1.525 1.244-2.77 2.769-2.77h11.077c1.525 0 2.769 1.244 2.769 2.77v16.615z"/><g fill="#66b3ff"><path d="M36 288.172c-19.595 0-35.481 14.025-35.481 31.327 0 17.303 15.886 31.327 35.481 31.327 19.596 0 35.481-14.024 35.481-31.327 0-17.302-15.885-31.327-35.481-31.327z"/><path d="M44.222 330.084l-1.003-5.403s-1.339-4.5-5.96-2.769c-11.929 4.476-18.836 1.85-21.564 1.547-2.793-.314-4.414 12.756-4.297 15.699.417 10.371-11.018 14.2-10.314 16.731 9 3.721 28.331-6.193 28.331-6.193s4.43-11.32 10.422-13.873c5.22-2.218 4.385-5.739 4.385-5.739z"/></g><path stroke="#f79748" stroke-miterlimit="10" d="M116.308 177.231v-19.385h-16.616v19.385c0 2.693-19.385 19.419-19.385 27.692 0 8.308 11.077 8.308 11.077 8.308h33.23s11.077 0 11.077-8.308c.001-8.273-19.383-24.999-19.383-27.692z" fill="none"/><rect x="94.154" y="155.077" fill="#f79748" width="27.692" height="5.538"/><path fill="#f79748" d="M124.929 188.308h-26.102s-18.173 24.923-7.962 24.923h35.729c18.961 0-1.665-24.923-1.665-24.923zm-8.621 19.679c-3.224 0-5.836-2.61-5.836-5.833s2.612-5.833 5.836-5.833 5.836 2.609 5.836 5.833-2.613 5.833-5.836 5.833zm-12.567-8.348c-2.377 0-4.303-1.925-4.303-4.302s1.926-4.303 4.303-4.303 4.303 1.925 4.303 4.303c-.001 2.376-1.926 4.302-4.303 4.302z"/><circle fill="#f79748" cx="112.154" cy="148.154" r="3.973"/><circle fill="#f79748" cx="106.796" cy="170.308" r="3.973"/><path fill="#f79748" d="M135.692 11.077h-55.384c-4.586 0-8.308 3.721-8.308 8.308v33.23c0 4.587 3.721 8.308 8.308 8.308h55.385c4.586 0 8.308-3.721 8.308-8.308v-33.23c-.001-4.587-3.722-8.308-8.309-8.308zm-15.317 24.61l17.74 18.162-21.64-15.458-8.475 5.522-8.481-5.522-21.637 15.458 17.743-18.162-21.454-16.724 33.829 18.243 33.826-18.243-21.451 16.724z"/><path fill="#f79748" d="M130.154 365.539h-.508c-1.146-3.219-4.187-5.539-7.799-5.539h-33.232c-4.586 0-8.308 3.721-8.308 8.308v52.614999999999995c0 5.165 9.828 11.077 13.846 11.077h36c4.581 0 8.308-3.727 8.308-8.308v-49.847c0-4.579-3.726-8.306-8.307-8.306zm-36 6.75c0-6.643 5.539-6.75 5.539-6.75h19.385s-5.539.059-5.539 6.75v29.249l-9.692-6.749-9.692 6.749c-.001 0-.001-24.753-.001-29.249zm38.769 51.403c0 1.528-1.244 2.77-2.769 2.77h-36c-1.022-.011-3.483-1.345-5.474-2.77h33.166c4.586 0 8.308-3.722 8.308-8.308v-44.308c1.525 0 2.769 1.241 2.769 2.769v49.847z"/><path fill="#f79748" d="M108 80.828c14.982 0 27.173 12.19 27.173 27.172 0 14.982-12.19 27.173-27.173 27.173-14.982 0-27.172-12.19-27.172-27.173 0-14.982 12.19-27.172 27.172-27.172m0-8.308c-19.595 0-35.48 15.885-35.48 35.48 0 19.596 15.885 35.48 35.48 35.48 19.596 0 35.48-15.885 35.48-35.48s-15.884-35.48-35.48-35.48z"/><circle fill="#f79748" cx="132.923" cy="108" r="3.675"/><circle fill="#f79748" cx="83.077" cy="108" r="3.675"/><circle fill="#f79748" cx="108" cy="132.923" r="3.675"/><circle fill="#f79748" cx="108" cy="83.077" r="3.675"/><path fill="#f79748" d="M103.527 103.522l-10.211 19.163 19.163-10.208 10.209-19.164-19.161 10.209zm4.473 7.961c-1.925 0-3.483-1.558-3.483-3.483s1.558-3.483 3.483-3.483c1.926 0 3.483 1.558 3.483 3.483 0 1.926-1.557 3.483-3.483 3.483z"/><polyline stroke="#f79748" stroke-width="2" stroke-linecap="round" stroke-linejoin="round" stroke-miterlimit="10" points="75.483,257.517 108,225 140.604,257.604" fill="none"/><path fill="#f79748" d="M124.615 241.615v-17.264c0-1.525 1.241-2.77 2.77-2.77h2.769c1.525 0 2.769 1.244 2.769 2.77v25.572l-8.308-8.308z"/><path fill="#f79748" d="M108 234l-30.461 30.461v15.231c0 4.587 3.721 8.308 8.308 8.308h44.308c4.586 0 8.308-3.721 8.308-8.308v-15.231l-30.463-30.461zm8.308 45.692c0 1.525-1.244 2.769-2.769 2.769h-11.077c-1.525 0-2.769-1.243-2.769-2.769v-16.615c0-1.525 1.244-2.77 2.769-2.77h11.077c1.525 0 2.769 1.244 2.769 2.77v16.615z"/><g fill="#f79748"><path d="M108 288.172c-19.595 0-35.481 14.025-35.481 31.327 0 17.303 15.886 31.327 35.481 31.327 19.596 0 35.481-14.024 35.481-31.327 0-17.302-15.885-31.327-35.481-31.327z"/><path d="M116.222 330.084l-1.003-5.403s-1.339-4.5-5.96-2.769c-11.929 4.475-18.836 1.85-21.564 1.547-2.793-.314-4.414 12.756-4.297 15.698.417 10.371-11.018 14.2-10.314 16.731 9 3.721 28.331-6.193 28.331-6.193s4.43-11.32 10.422-13.873c5.22-2.217 4.385-5.738 4.385-5.738z"/></g><path stroke="#ff8000" stroke-miterlimit="10" d="M188.308 177.231v-19.385h-16.615v19.385c0 2.693-19.385 19.419-19.385 27.692 0 8.308 11.077 8.308 11.077 8.308h33.23s11.077 0 11.077-8.308c0-8.273-19.384-24.999-19.384-27.692z" fill="none"/><rect x="166.154" y="155.077" fill="#ff8000" width="27.692" height="5.538"/><path fill="#ff8000" d="M196.929 188.308h-26.102s-18.173 24.923-7.962 24.923h35.729c18.961 0-1.665-24.923-1.665-24.923zm-8.621 19.679c-3.224 0-5.836-2.61-5.836-5.833s2.612-5.833 5.836-5.833 5.836 2.609 5.836 5.833-2.613 5.833-5.836 5.833zm-12.567-8.348c-2.377 0-4.303-1.925-4.303-4.302s1.926-4.303 4.303-4.303 4.303 1.925 4.303 4.303c-.001 2.376-1.926 4.302-4.303 4.302z"/><circle fill="#ff8000" cx="184.154" cy="148.154" r="3.973"/><circle fill="#ff8000" cx="178.796" cy="170.308" r="3.973"/><path fill="#ff8000" d="M207.692 11.077h-55.385c-4.586 0-8.308 3.721-8.308 8.308v33.23c0 4.587 3.721 8.308 8.308 8.308h55.385c4.586 0 8.308-3.721 8.308-8.308v-33.23c0-4.587-3.721-8.308-8.308-8.308zm-15.317 24.61l17.74 18.162-21.64-15.458-8.475 5.522-8.481-5.522-21.637 15.458 17.743-18.162-21.454-16.724 33.829 18.243 33.826-18.243-21.451 16.724z"/><path fill="#ff8000" d="M202.154 365.539h-.508c-1.146-3.219-4.187-5.539-7.799-5.539h-33.231c-4.586 0-8.308 3.721-8.308 8.308v52.614999999999995c0 5.165 9.828 11.077 13.846 11.077h36c4.581 0 8.308-3.727 8.308-8.308v-49.847c-.001-4.579-3.727-8.306-8.308-8.306zm-36 6.75c0-6.643 5.539-6.75 5.539-6.75h19.385s-5.539.059-5.539 6.75v29.249l-9.692-6.749-9.692 6.749c-.001 0-.001-24.753-.001-29.249zm38.769 51.403c0 1.528-1.244 2.77-2.769 2.77h-36c-1.022-.011-3.483-1.345-5.474-2.77h33.166c4.586 0 8.308-3.722 8.308-8.308v-44.308c1.525 0 2.769 1.241 2.769 2.769v49.847z"/><path fill="#ff8000" d="M180 80.828c14.982 0 27.173 12.19 27.173 27.172 0 14.982-12.19 27.173-27.173 27.173-14.982 0-27.172-12.19-27.172-27.173 0-14.982 12.19-27.172 27.172-27.172m0-8.308c-19.595 0-35.48 15.885-35.48 35.48 0 19.596 15.885 35.48 35.48 35.48 19.596 0 35.48-15.885 35.48-35.48s-15.884-35.48-35.48-35.48z"/><circle fill="#ff8000" cx="204.923" cy="108" r="3.675"/><circle fill="#ff8000" cx="155.077" cy="108" r="3.675"/><circle fill="#ff8000" cx="180" cy="132.923" r="3.675"/><circle fill="#ff8000" cx="180" cy="83.077" r="3.675"/><path fill="#ff8000" d="M175.527 103.522l-10.211 19.163 19.163-10.208 10.209-19.164-19.161 10.209zm4.473 7.961c-1.925 0-3.483-1.558-3.483-3.483s1.558-3.483 3.483-3.483c1.926 0 3.483 1.558 3.483 3.483 0 1.926-1.557 3.483-3.483 3.483z"/><polyline stroke="#ff8000" stroke-miterlimit="10" points="147.483,257.517 180,225 212.604,257.604" fill="none"/><path fill="#ff8000" d="M196.615 241.615v-17.264c0-1.525 1.241-2.77 2.77-2.77h2.769c1.525 0 2.769 1.244 2.769 2.77v25.572l-8.308-8.308z"/><path fill="#ff8000" d="M180 234l-30.461 30.461v15.231c0 4.587 3.721 8.308 8.308 8.308h44.308c4.586 0 8.308-3.721 8.308-8.308v-15.231l-30.463-30.461zm8.308 45.692c0 1.525-1.244 2.769-2.769 2.769h-11.077c-1.525 0-2.769-1.243-2.769-2.769v-16.615c0-1.525 1.244-2.77 2.769-2.77h11.077c1.525 0 2.769 1.244 2.769 2.77v16.615z"/><g fill="#ff8000"><path d="M180 288.172c-19.595 0-35.481 14.025-35.481 31.327 0 17.303 15.886 31.327 35.481 31.327 19.596 0 35.481-14.024 35.481-31.327 0-17.302-15.885-31.327-35.481-31.327z"/><path d="M188.222 330.084l-1.003-5.403s-1.339-4.5-5.96-2.769c-11.929 4.475-18.836 1.85-21.564 1.547-2.793-.314-4.414 12.756-4.297 15.698.417 10.371-11.018 14.2-10.314 16.731 9 3.721 28.331-6.193 28.331-6.193s4.43-11.32 10.422-13.873c5.22-2.217 4.385-5.738 4.385-5.738z"/></g></svg>