<svg xmlns="http://www.w3.org/2000/svg" width="1655.806" height="1681.705" viewBox="-439.772 -479.365 1655.806 1681.705" enable-background="new -439.772 -479.365 1655.806 1681.705"><path fill="#F79748" d="M1076.588 420.071l-10.547-131.149 143.139-119.662-49.57-154.438-180.06-10.596-85.642-99.904 45.48-180.941-130.88-95.813-151.894 97.25-128.01-30.482-69.557-173.109-162.203-.592-65.721 167.969-121.477 50.582-158.045-99.172-131.578 94.84 45.586 174.535-68.549 112.355-186.148 12.652-50.684 154.059 139.445 114.412 10.555 131.192-143.152 119.619 49.576 154.447 180.061 10.588 85.641 99.908-45.477 180.973 130.848 95.783 151.922-97.262 128.008 30.486 69.566 173.145 162.207.594 65.707-167.994 121.481-50.596 158.039 99.182 131.543-94.84-45.545-174.539 68.55-112.355 186.141-12.654 50.689-154.057-139.445-114.416zm-496.7-499.183c14.959-25.904 48.136-34.813 74.074-19.816 25.938 14.965 34.774 48.1 19.821 74.039-14.965 25.902-48.141 34.82-74.038 19.82-25.939-14.963-34.816-48.102-19.857-74.043zm-457.582-19.816c25.933-14.997 59.072-6.088 74.072 19.816 14.956 25.941 6.049 59.115-19.855 74.043-25.937 15-59.08 6.082-74.07-19.82-14.973-25.94-6.092-59.075 19.853-74.039zm74.039 900.979c-14.966 25.938-48.105 34.82-74.038 19.85-25.946-14.959-34.827-48.129-19.854-74.066 14.955-25.898 48.166-34.822 74.07-19.822 25.904 14.964 34.781 48.102 19.822 74.038zm457.618 19.851c-25.939 14.969-59.115 6.086-74.074-19.852-14.959-25.936-6.082-59.074 19.857-74.039 25.928-14.965 59.074-6.076 74.039 19.822 14.994 25.94 6.117 59.073-19.822 74.069zm248.473-451.049c0 20.28-16.611 36.85-36.88 36.85h-245.959c-21.491 108.194-116.964 189.78-231.48 189.78-114.481 0-209.947-81.586-231.449-189.78h-246c-20.273 0-36.836-16.57-36.836-36.85v-18.77c0-20.238 16.563-36.842 36.836-36.842h246c21.502-108.189 116.969-189.784 231.449-189.784 114.515 0 209.989 81.594 231.48 189.784h245.959c20.269 0 36.88 16.604 36.88 36.842v18.77z"/></svg>