<svg xmlns="http://www.w3.org/2000/svg" width="1689.009" height="1689.009" viewBox="-180.464 -844.504 1689.009 1689.009" enable-background="new -180.464 -844.504 1689.009 1689.009"><g fill="#F79748"><path d="M664.033-441.345c-243.715.001-441.297 197.624-441.297 441.31 0 243.758 197.582 441.351 441.297 441.351 243.727 0 441.328-197.594 441.328-441.352 0-243.686-197.601-441.309-441.328-441.309zm0 49.152c29.66 0 53.727 24.066 53.727 53.717 0 29.657-24.066 53.686-53.727 53.686-29.65 0-53.715-24.03-53.715-53.686 0-29.651 24.065-53.717 53.715-53.717zm-338.472 445.872c-29.653 0-53.722-24.031-53.722-53.674 0-29.654 24.068-53.721 53.722-53.721 29.661 0 53.728 24.067 53.728 53.721 0 29.643-24.068 53.674-53.728 53.674zm338.472 338.488c-29.65 0-53.715-24.041-53.715-53.696 0-29.65 24.064-53.71 53.715-53.71 29.662 0 53.727 24.06 53.727 53.71 0 29.655-24.067 53.696-53.727 53.696zm0-158.494c-129.037 0-233.703-104.623-233.703-233.667 0-129.084 104.666-233.715 233.703-233.715 129.057 0 233.715 104.631 233.715 233.715 0 129.044-104.658 233.667-233.715 233.667zm392.168-233.668c.043 29.642-24.031 53.674-53.691 53.674-29.652 0-53.715-24.031-53.715-53.674 0-29.655 24.063-53.721 53.715-53.721 29.66.001 53.691 24.068 53.691 53.721z"/><path d="M1508.545 71.245v-142.496l-118.793-56.488-33.375-124.516 74.67-108.289-71.252-123.418-131.129 10.505-91.168-91.172 10.508-131.117-123.422-71.254-108.283 74.664-124.549-33.379-56.469-118.789h-142.492l-56.461 118.789-124.545 33.379-108.28-74.664-123.425 71.254 10.5 131.117-91.168 91.172-131.084-10.504-71.291 123.418 74.664 108.289-33.384 124.516-118.782 56.453v142.531l118.782 56.467 33.384 124.514-74.664 108.313 71.256 123.422 131.119-10.504 91.168 91.146-10.5 131.107 123.425 71.252 108.279-74.615 124.545 33.34 56.461 118.816h142.492l56.469-118.816 124.549-33.34 108.283 74.615 123.422-71.252-10.508-131.109 91.168-91.146 131.129 10.504 71.252-123.422-74.67-108.313 33.375-124.514 118.794-56.466zm-844.512 441.594c-283.209 0-512.875-229.664-512.875-512.833 0-283.217 229.665-512.881 512.875-512.881 283.223 0 512.893 229.664 512.893 512.881 0 283.169-229.67 512.833-512.893 512.833z"/></g></svg>